<?xml version="1.0" standalone="no"?>
<!DOCTYPE svg PUBLIC "-//W3C//DTD SVG 1.1//EN" "http://www.w3.org/Graphics/SVG/1.1/DTD/svg11.dtd" >
<svg xmlns="http://www.w3.org/2000/svg">
<metadata></metadata>
<defs>
<font id="camptonthin_italic" horiz-adv-x="1280" >
<font-face units-per-em="2048" ascent="1638" descent="-410" />
<missing-glyph horiz-adv-x="573" />
<glyph unicode="&#xfb01;" horiz-adv-x="1208" d="M84 881l8 41h281l57 325q23 135 115.5 217t218.5 82q71 0 135 -16t156 -51l-19 -37q-58 21 -93 32.5t-86 21t-101 9.5q-107 0 -185 -70.5t-98 -187.5l-57 -325h669l-161 -922h-43l153 881h-624l-156 -881h-43l156 881h-283z" />
<glyph unicode="&#xfb02;" horiz-adv-x="1185" d="M84 881l8 41h281l57 325q23 135 115.5 217t218.5 82q70 0 162 -24l-19 -37q-85 20 -151 20q-107 0 -185 -72.5t-98 -189.5l-57 -321h362l-8 -41h-360l-156 -881h-43l156 881h-283zM856 0l258 1454h43l-258 -1454h-43z" />
<glyph horiz-adv-x="0" />
<glyph horiz-adv-x="682" />
<glyph unicode=" "  horiz-adv-x="573" />
<glyph unicode="&#x09;" horiz-adv-x="573" />
<glyph unicode="&#xa0;" horiz-adv-x="573" />
<glyph unicode="!" horiz-adv-x="503" d="M129 31q0 20 13.5 33.5t33.5 13.5t33.5 -13.5t13.5 -33.5t-13.5 -33.5t-33.5 -13.5t-33.5 13.5t-13.5 33.5zM205 328l188 1065h45l-188 -1065h-45z" />
<glyph unicode="&#x22;" horiz-adv-x="624" d="M199 862l94 531h43l-94 -531h-43zM494 862l94 531h43l-94 -531h-43z" />
<glyph unicode="#" horiz-adv-x="1454" d="M102 463l4 33h248l201 409h-262l4 33h274l224 457h43l-224 -457h521l223 457h43l-223 -457h256l-4 -33h-269l-200 -409h282l-4 -33h-295l-225 -463h-43l225 463h-520l-225 -463h-43l225 463h-236zM397 496h521l200 409h-520z" />
<glyph unicode="$" horiz-adv-x="1337" d="M117 434h45q-3 -207 106.5 -315.5t335.5 -108.5t374 114.5t148 289.5q0 102 -70 169.5t-202 92.5l-246 49q-154 29 -236.5 105t-82.5 186q0 167 136.5 280t352.5 125l49 277h43l-49 -275h4q227 0 342 -101.5t113 -270.5h-45q-5 157 -108.5 244t-307.5 87 q-211 0 -347 -103t-136 -261q0 -95 76.5 -161.5t220.5 -92.5l239 -47q146 -28 224 -104t78 -189q0 -130 -75 -234t-207 -162.5t-296 -58.5h-31l-45 -258h-43l45 260q-207 19 -309.5 136t-95.5 327z" />
<glyph unicode="%" horiz-adv-x="2304" d="M283 987q0 119 61.5 220t163 158.5t215.5 57.5q135 0 220 -89.5t85 -227.5q0 -119 -61 -220t-162 -158.5t-215 -57.5q-137 0 -222 89.5t-85 227.5zM326 995q0 -121 76.5 -200.5t195.5 -79.5q153 0 270 113t117 270q0 122 -75.5 202t-194.5 80q-74 0 -145 -30.5 t-125 -81.5t-86.5 -122.5t-32.5 -150.5zM688 0l909 1393h50l-910 -1393h-49zM1358 287q0 119 61 220t162 158.5t215 57.5q135 0 221 -89.5t86 -227.5q0 -119 -61 -220.5t-162.5 -159t-216.5 -57.5q-135 0 -220 90t-85 228zM1401 295q0 -121 75.5 -201t194.5 -80q75 0 146 30 t124.5 81t86 122.5t32.5 149.5q0 123 -75.5 203t-194.5 80q-101 0 -190.5 -51t-144 -140t-54.5 -194z" />
<glyph unicode="&#x26;" horiz-adv-x="1507" d="M129 305q0 72 25 138t66 116t95.5 91.5t111 69t114.5 44.5q-61 77 -90 141.5t-29 132.5q0 164 122.5 274.5t305.5 110.5q151 0 237 -85.5t74 -245.5h-41q6 142 -69.5 216t-206.5 74q-161 0 -269 -98t-108 -244q0 -27 6 -54.5t12 -50t25 -53t30 -49.5t42 -55l46.5 -54 t58 -61.5t61 -62t71.5 -70.5l248 -247l326 350h47l-344 -377l258 -256h-66l-225 225q-122 -125 -251.5 -186.5t-279.5 -61.5q-187 0 -295 91t-108 237zM174 313q0 -133 98.5 -214t270.5 -81q139 0 257 57.5t236 176.5l-250 250q-143 143 -219 231q-173 -54 -283 -161 t-110 -259z" />
<glyph unicode="'" horiz-adv-x="329" d="M209 862l94 531h43l-94 -531h-43z" />
<glyph unicode="(" horiz-adv-x="729" d="M172 633q94 551 541 848l18 -35q-215 -151 -341.5 -348.5t-172.5 -470.5q-50 -248 8.5 -462.5t216.5 -361.5l-30 -30q-167 145 -229 376t-11 484z" />
<glyph unicode=")" horiz-adv-x="729" d="M55 -193q215 151 341.5 349t172.5 471q50 248 -8.5 461.5t-216.5 361.5l31 31q167 -145 228.5 -376t10.5 -484q-94 -552 -540 -848z" />
<glyph unicode="*" horiz-adv-x="808" d="M217 1042l272 72l-180 180l27 27l182 -182l72 276l35 -10l-72 -275l276 70l9 -35l-275 -71l187 -187l-27 -26l-186 186l-72 -272l-35 8l72 276l-275 -71z" />
<glyph unicode="+" horiz-adv-x="1398" d="M274 625l9 43h430l75 432h48l-76 -432h430l-8 -43h-430l-76 -432h-47l76 432h-431z" />
<glyph unicode="," horiz-adv-x="364" d="M-57 -328l163 318q-36 6 -36 41q0 20 13.5 33.5t33.5 13.5t33.5 -13.5t13.5 -33.5q0 -18 -35 -84l-149 -275h-37z" />
<glyph unicode="-" horiz-adv-x="1134" d="M262 553l8 43h643l-8 -43h-643z" />
<glyph unicode="." horiz-adv-x="299" d="M27 31q0 20 13.5 33.5t33.5 13.5t33.5 -13.5t13.5 -33.5t-13.5 -33.5t-33.5 -13.5t-33.5 13.5t-13.5 33.5z" />
<glyph unicode="/" horiz-adv-x="819" d="M-57 -328l888 1823h46l-889 -1823h-45z" />
<glyph unicode="0" horiz-adv-x="1462" d="M174 532q0 252 90 454.5t256.5 319.5t380.5 117q225 0 347 -152t122 -411q0 -252 -90 -454.5t-256.5 -319.5t-380.5 -117q-225 0 -347 152t-122 411zM221 539q0 -243 111.5 -386t318.5 -143q197 0 351.5 111.5t237.5 303t83 429.5q0 243 -111.5 385.5t-318.5 142.5 q-148 0 -274.5 -65t-213 -177.5t-135.5 -268t-49 -332.5z" />
<glyph unicode="1" horiz-adv-x="1015" d="M0 0l8 41h430l228 1298l-426 -157l8 47l450 164h21l-238 -1352h389l-8 -41h-862z" />
<glyph unicode="2" horiz-adv-x="1140" d="M43 0l6 27l547 444q86 69 137.5 113t109.5 98t89.5 95t60 89.5t40 97t11.5 103.5q0 140 -92.5 227.5t-251.5 87.5q-168 0 -298.5 -91t-174.5 -240h-43q43 167 187 269.5t334 102.5q179 0 283 -97t104 -253q0 -68 -18 -128t-49.5 -113.5t-92.5 -118t-128 -123.5t-175 -148 l-490 -401h809l-8 -41h-897z" />
<glyph unicode="3" horiz-adv-x="1155" d="M63 307h46q-7 -130 98 -209.5t285 -79.5q211 0 347 107t136 278q0 128 -89.5 205.5t-242.5 77.5h-121l6 41h121q176 0 292 106t116 269q0 128 -89 204t-247 76q-157 0 -273.5 -77t-156.5 -205h-47q41 147 170.5 235t308.5 88q178 0 278.5 -85.5t100.5 -229.5t-84 -251.5 t-223 -149.5q106 -32 165.5 -110.5t59.5 -186.5q0 -192 -148 -312.5t-380 -120.5q-204 0 -323 91t-106 239z" />
<glyph unicode="4" horiz-adv-x="1323" d="M78 332l6 26l633 1035h47l-621 -1020h721l86 487h43l-86 -487h256l-8 -41h-254l-59 -332h-43l59 332h-780z" />
<glyph unicode="5" horiz-adv-x="1187" d="M72 362h47q5 -166 108.5 -259t296.5 -93q142 0 263 64t190.5 171t69.5 230q0 141 -98 225t-271 84l-359 -2l9 43h360q189 0 296.5 -93.5t107.5 -250.5q0 -138 -75.5 -255.5t-208 -187t-290.5 -69.5q-213 0 -328 104t-118 289zM276 782l109 611h789l-7 -41h-747l-101 -570 h-43z" />
<glyph unicode="6" horiz-adv-x="1253" d="M125 367q0 109 41 198.5t119 175.5l610 652h63l-512 -539q128 57 263 57q189 0 304 -107t115 -284q0 -118 -46.5 -221.5t-126 -175t-187 -113t-225.5 -41.5q-189 0 -303.5 109.5t-114.5 288.5zM172 373q0 -163 104.5 -263t274.5 -100q143 0 264 63.5t193.5 179.5 t72.5 259q0 161 -104.5 259.5t-274.5 98.5q-214 0 -362 -129l-25 -26q-143 -143 -143 -342z" />
<glyph unicode="7" horiz-adv-x="1026" d="M143 0l944 1352h-874l6 41h934l-4 -29l-948 -1364h-58z" />
<glyph unicode="8" horiz-adv-x="1265" d="M98 317q0 160 113 272t301 148q-108 30 -168.5 100.5t-60.5 172.5q0 113 68.5 208.5t185 150t251.5 54.5q169 0 274 -89.5t105 -227.5q0 -142 -94 -239t-250 -132q135 -29 211 -110.5t76 -196.5q0 -131 -75 -236t-207 -164t-296 -59q-200 0 -317 95t-117 253zM143 324 q0 -142 107 -228t289 -86q227 0 375.5 117t148.5 297q0 133 -108 214t-291 81q-149 0 -267.5 -49t-186 -139.5t-67.5 -206.5zM326 1014q0 -124 94.5 -193t249.5 -69q126 0 228 40.5t163 121t61 186.5q0 123 -94 203.5t-246 80.5q-187 0 -321.5 -108.5t-134.5 -261.5z" />
<glyph unicode="9" horiz-adv-x="1253" d="M215 872q0 157 80 284.5t213.5 197t292.5 69.5q189 0 303.5 -109t114.5 -288q0 -109 -41 -199t-119 -176l-610 -651h-64l512 539q-130 -58 -262 -58q-189 0 -304.5 107t-115.5 284zM262 881q0 -161 104.5 -260t274.5 -99q215 0 363 129l24 27q143 143 143 342 q0 163 -104 262.5t-274 99.5q-143 0 -264 -63.5t-194 -179t-73 -258.5z" />
<glyph unicode=":" horiz-adv-x="299" d="M33 31q0 20 13.5 33.5t33.5 13.5t33.5 -13.5t13.5 -33.5t-13.5 -33.5t-33.5 -13.5t-33.5 13.5t-13.5 33.5zM188 895q0 20 14 33.5t34 13.5t33.5 -13.5t13.5 -33.5t-13.5 -33.5t-33.5 -13.5t-34 13.5t-14 33.5z" />
<glyph unicode=";" horiz-adv-x="323" d="M-96 -328l164 318q-37 6 -37 41q0 20 13.5 33.5t33.5 13.5t33.5 -13.5t13.5 -33.5q0 -18 -35 -84l-149 -275h-37zM188 895q0 20 14 33.5t34 13.5t33.5 -13.5t13.5 -33.5t-13.5 -33.5t-33.5 -13.5t-34 13.5t-14 33.5z" />
<glyph unicode="&#x3c;" horiz-adv-x="1112" d="M74 590l8 47l940 430l-8 -51l-887 -408l743 -401l-8 -47z" />
<glyph unicode="=" horiz-adv-x="1480" d="M246 457l8 43h987l-8 -43h-987zM315 846l7 43h987l-6 -43h-988z" />
<glyph unicode="&#x3e;" horiz-adv-x="1112" d="M133 160l8 51l887 407l-743 402l8 47l788 -430l-8 -47z" />
<glyph unicode="?" horiz-adv-x="1228" d="M283 1110q56 142 186 227.5t276 85.5q170 0 272.5 -102t102.5 -256q0 -128 -69 -238.5t-191 -176.5t-268 -66l-41 -234h-41l41 275h47q130 0 240.5 60t173.5 159.5t63 212.5q0 138 -93 231.5t-245 93.5q-127 0 -243 -75.5t-166 -196.5h-45zM426 31q0 20 13.5 33.5 t33.5 13.5t33.5 -13.5t13.5 -33.5t-13.5 -33.5t-33.5 -13.5t-33.5 13.5t-13.5 33.5z" />
<glyph unicode="@" horiz-adv-x="1937" d="M137 362q0 188 83.5 360t219 293t312 193t358.5 72q148 0 278.5 -53t222 -144t144.5 -216t53 -265q0 -134 -45 -249.5t-136 -190t-210 -74.5q-157 0 -174 148q-149 -162 -346 -162q-142 0 -233 90t-91 235q0 95 38.5 179.5t102.5 142.5t147 91.5t171 33.5q182 0 275 -137 l18 98h43l-74 -418q-23 -127 5 -193.5t124 -66.5q98 0 176 63t120 168.5t42 231.5q0 176 -85 324t-236 234.5t-336 86.5q-169 0 -335.5 -68.5t-295 -183t-208 -276.5t-79.5 -336q0 -137 50 -258t136 -207.5t207 -136.5t259 -50q139 0 277.5 48t258.5 135l23 -37 q-264 -189 -566 -189q-147 0 -276 52t-221 142.5t-144.5 217.5t-52.5 272zM618 406q0 -130 81 -210.5t208 -80.5q189 0 334 164q0 45 10 110l47 264q-89 152 -268 152q-166 0 -289 -113.5t-123 -285.5z" />
<glyph unicode="A" horiz-adv-x="1517" d="M-2 0l899 1403h47l408 -1403h-47l-146 500h-788l-320 -500h-53zM397 541h750l-234 807z" />
<glyph unicode="B" horiz-adv-x="1452" d="M154 0l245 1393h529q177 0 280 -79.5t103 -211.5q0 -141 -88 -239.5t-256 -139.5q152 -28 229.5 -101.5t77.5 -189.5q0 -191 -166.5 -311.5t-425.5 -120.5h-528zM207 41h483q233 0 384 107t151 278q0 130 -108.5 200t-311.5 70h-483zM330 737h422q233 0 371.5 97 t138.5 262q0 116 -91.5 186t-248.5 70h-486z" />
<glyph unicode="C" horiz-adv-x="1656" d="M184 696q35 197 161.5 364t310 264t380.5 97q244 0 396 -129.5t167 -337.5h-49q-15 189 -156 306.5t-366 117.5q-139 0 -274 -54t-241.5 -145.5t-182.5 -217.5t-101 -265q-11 -64 -11 -125q0 -115 40 -217q62 -156 202.5 -248t325.5 -92q225 0 408 117.5t266 306.5h49 q-89 -208 -287 -337.5t-442 -129.5q-197 0 -346.5 97t-216.5 264q-44 111 -44 235q0 63 11 129z" />
<glyph unicode="D" horiz-adv-x="1556" d="M154 0l245 1393h447q285 0 450.5 -155.5t165.5 -414.5q0 -235 -112 -423.5t-309 -294t-441 -105.5h-446zM207 41h401q171 0 320 58.5t255.5 160t168 246.5t61.5 311q0 242 -154.5 388.5t-418.5 146.5h-404z" />
<glyph unicode="E" horiz-adv-x="1366" d="M154 0l245 1393h926l-8 -41h-881l-110 -635h798l-8 -41h-799l-110 -635h880l-8 -41h-925z" />
<glyph unicode="F" horiz-adv-x="1304" d="M154 0l245 1393h906l-9 -41h-860l-117 -666h779l-6 -41h-779l-114 -645h-45z" />
<glyph unicode="G" horiz-adv-x="1693" d="M184 696q35 197 162 364t311 264t381 97q231 0 388.5 -131.5t172.5 -335.5h-45q-15 186 -162.5 305t-361.5 119q-139 0 -274.5 -54t-242.5 -145.5t-183 -217.5t-101 -265q-12 -66 -12 -128q0 -113 39 -214q61 -157 199 -248.5t323 -91.5q133 0 253.5 50t212 136.5 t157 203.5t94.5 251h-608l6 41h655v-6l-123 -690h-45l72 412q-103 -201 -281.5 -321t-398.5 -120q-197 0 -344.5 97t-213.5 264q-42 108 -42 230q0 65 12 134z" />
<glyph unicode="H" horiz-adv-x="1554" d="M154 0l245 1393h45l-118 -676h993l119 676h45l-246 -1393h-45l119 678h-994l-118 -678h-45z" />
<glyph unicode="I" horiz-adv-x="516" d="M154 0l245 1393h45l-245 -1393h-45z" />
<glyph unicode="J" horiz-adv-x="1267" d="M84 352h45q6 -158 101 -250t268 -92q190 0 326.5 127.5t174.5 345.5l162 910h45l-162 -910q-41 -236 -193 -375t-364 -139q-186 0 -292 104t-111 279z" />
<glyph unicode="K" horiz-adv-x="1468" d="M154 0l245 1393h45l-163 -926l1091 926h64l-764 -650l604 -743h-62l-579 711l-365 -310l-71 -401h-45z" />
<glyph unicode="L" horiz-adv-x="1222" d="M154 0l245 1393h45l-237 -1352h819l-8 -41h-864z" />
<glyph unicode="M" horiz-adv-x="1740" d="M154 0l245 1393h50l403 -1016l766 1016h51l-246 -1393h-45l234 1311l-742 -983h-49l-393 985l-229 -1313h-45z" />
<glyph unicode="N" horiz-adv-x="1601" d="M154 0l245 1393h52l798 -1334l236 1334h45l-246 -1393h-53l-797 1333l-235 -1333h-45z" />
<glyph unicode="O" horiz-adv-x="1744" d="M176 592q0 164 73 318t192 265.5t277 178.5t322 67q176 0 316 -82t217.5 -223.5t77.5 -314.5q0 -132 -47 -258.5t-130 -228.5t-191 -180t-237 -120.5t-260 -42.5q-175 0 -315.5 82.5t-217.5 224t-77 314.5zM223 598q0 -162 71.5 -295t202.5 -211t296 -78 q154 0 302.5 63.5t260 168.5t180 250t68.5 299q0 121 -42 228.5t-116.5 185.5t-181 123.5t-230.5 45.5q-154 0 -302.5 -63t-260 -168t-180 -250t-68.5 -299z" />
<glyph unicode="P" horiz-adv-x="1368" d="M154 0l245 1393h447q207 0 327.5 -102t120.5 -271q0 -223 -171 -365.5t-433 -142.5h-401l-90 -512h-45zM297 553h401q237 0 392 129.5t155 331.5q0 154 -109 246t-296 92h-404z" />
<glyph unicode="Q" horiz-adv-x="1744" d="M176 592q0 164 73 318t192 265.5t277 178.5t322 67q176 0 316 -82t217.5 -223.5t77.5 -314.5q0 -239 -144.5 -443.5t-369.5 -306.5l299 -379l-37 -32l-307 391q-148 -60 -306 -60q-175 0 -315.5 82.5t-217.5 224t-77 314.5zM223 598q0 -162 71.5 -295t202.5 -211t296 -78 q154 0 302.5 63.5t260 168.5t180 250t68.5 299q0 121 -42 228.5t-116.5 185.5t-181 123.5t-230.5 45.5q-154 0 -302.5 -63t-260 -168t-180 -250t-68.5 -299z" />
<glyph unicode="R" horiz-adv-x="1423" d="M154 0l245 1393h467q210 0 330.5 -94t120.5 -261q0 -208 -149 -338t-392 -145l402 -555h-60l-397 553h-4h-420l-98 -553h-45zM303 594h422q158 0 281 52t193.5 152.5t70.5 233.5q0 150 -110.5 235t-301.5 85h-422z" />
<glyph unicode="S" horiz-adv-x="1337" d="M117 434h45v-11q0 -199 106 -305q110 -108 336 -108t374 114.5t148 289.5q0 102 -70 169.5t-202 92.5l-246 49q-154 29 -236.5 105t-82.5 186q0 177 151.5 292t384.5 115q227 1 342 -101q113 -100 113 -265v-6h-45q-5 157 -108.5 244t-307.5 87q-211 0 -347 -103 t-136 -261q0 -95 76.5 -161.5t220.5 -92.5l239 -47q146 -28 224 -104t78 -189q0 -130 -75 -234t-207 -162.5t-296 -58.5q-244 1 -366 119q-114 111 -113 318v28z" />
<glyph unicode="T" horiz-adv-x="1273" d="M217 1352l8 41h1151l-8 -41h-553l-237 -1352h-46l238 1352h-553z" />
<glyph unicode="U" horiz-adv-x="1579" d="M233 565l146 828h45l-145 -828q-11 -61 -11 -118q0 -86 25 -162q41 -126 148 -200.5t261 -74.5q232 0 407.5 159.5t217.5 395.5l146 828h45l-146 -828q-22 -124 -82 -233.5t-147 -189.5t-202 -126.5t-241 -46.5q-167 0 -284.5 79.5t-164.5 215.5q-29 84 -29 179 q0 59 11 122z" />
<glyph unicode="V" horiz-adv-x="1476" d="M221 1393h49l389 -1344l863 1344h53l-901 -1403h-47z" />
<glyph unicode="W" horiz-adv-x="2158" d="M258 1393h45l227 -1336l682 1336h45l207 -1334l699 1334h49l-737 -1403h-43l-207 1337l-682 -1337h-43z" />
<glyph unicode="X" horiz-adv-x="1335" d="M-16 0l696 694l-420 699h57l396 -664l626 664h68l-668 -699l447 -694h-56l-423 659l-658 -659h-65z" />
<glyph unicode="Y" horiz-adv-x="1310" d="M197 1393h51l414 -820l708 820h55l-745 -867l-92 -526h-45l92 526z" />
<glyph unicode="Z" horiz-adv-x="1341" d="M70 0l6 35l1196 1317h-944l8 41h1003l-6 -35l-1190 -1317h959l-8 -41h-1024z" />
<glyph unicode="[" horiz-adv-x="698" d="M115 -225l303 1720h311l-8 -41h-268l-289 -1638h268l-6 -41h-311z" />
<glyph unicode="\" horiz-adv-x="819" d="M102 1495h45l570 -1823h-45z" />
<glyph unicode="]" horiz-adv-x="698" d="M31 -225l8 41h268l289 1638h-268l6 41h311l-303 -1720h-311z" />
<glyph unicode="^" horiz-adv-x="765" d="M143 922l365 471h41l196 -471h-45l-180 430l-332 -430h-45z" />
<glyph unicode="_" horiz-adv-x="1390" d="M-33 -362l8 38h1164l-9 -38h-1163z" />
<glyph unicode="`" horiz-adv-x="1228" d="M455 1446h51l178 -279h-49z" />
<glyph unicode="a" d="M143 389q0 111 49.5 215t130.5 179.5t188 121t218 45.5q238 0 356 -184l29 156h43l-164 -922h-43l27 154q-185 -185 -420 -185q-181 0 -297.5 120.5t-116.5 299.5zM190 395q0 -164 104.5 -274.5t268.5 -110.5q120 0 230 56t196 157l84 473q-50 101 -140 157t-210 56 q-101 0 -198.5 -42t-171 -111t-118.5 -164.5t-45 -196.5z" />
<glyph unicode="b" horiz-adv-x="1277" d="M109 0l256 1454h43l-121 -686q184 184 422 184q180 0 295.5 -120.5t115.5 -299.5q0 -111 -49 -215t-129.5 -179.5t-187.5 -121t-219 -45.5q-235 0 -357 185l-26 -156h-43zM190 225q52 -102 142 -157.5t211 -55.5q135 0 258 70t198.5 189.5t75.5 254.5q0 163 -105.5 274 t-269.5 111q-119 0 -228.5 -55.5t-197.5 -155.5z" />
<glyph unicode="c" horiz-adv-x="1185" d="M150 461q37 206 195.5 347.5t367.5 141.5q156 0 251.5 -81.5t104.5 -217.5h-47q-9 118 -94.5 188t-222.5 70q-190 0 -332.5 -129.5t-177.5 -318.5q-8 -46 -8 -89q0 -72 22 -136q35 -102 123.5 -163t214.5 -61q137 0 247 70t160 188h47q-56 -136 -181 -217.5t-281 -81.5 q-138 0 -236 66q-98 65 -137 177q-25 70 -25 150q0 47 9 97z" />
<glyph unicode="d" d="M143 391q0 111 49.5 215t130.5 179.5t188 121t218 45.5q236 0 358 -184l121 686h43l-258 -1454h-43l29 156q-188 -185 -422 -185q-181 0 -297.5 120.5t-116.5 299.5zM190 397q0 -162 105.5 -273.5t267.5 -111.5q120 0 230 56t198 157l84 473q-52 101 -142 157t-210 56 q-101 0 -198.5 -42t-171 -111t-118.5 -164.5t-45 -196.5z" />
<glyph unicode="e" horiz-adv-x="1220" d="M150 461q36 205 195.5 347t361.5 142q131 0 221.5 -65t125.5 -178q21 -69 21 -149q0 -50 -8 -105q0 -7 -2 -9h-872q-6 -39 -6 -76q0 -132 77 -230q98 -126 277 -126q125 0 229.5 53.5t157.5 143.5h49q-59 -108 -178 -173t-264 -65q-133 0 -230 66t-137 178 q-26 71 -26 152q0 45 8 94zM199 485h827q4 37 4 71q0 138 -71 234q-89 120 -261 119q-177 0 -318 -122t-181 -302z" />
<glyph unicode="f" horiz-adv-x="733" d="M84 881l8 41h281l57 325q23 135 115.5 217t218.5 82q70 0 162 -24l-19 -37q-85 20 -151 20q-107 0 -185 -72.5t-98 -189.5l-57 -321h383l-8 -41h-381l-156 -881h-43l156 881h-283z" />
<glyph unicode="g" d="M74 -211h47q9 -116 102 -187t240 -71q185 0 315 111.5t162 296.5l39 217q-90 -89 -205 -138t-237 -49q-177 0 -285.5 118.5t-108.5 295.5q0 150 77.5 281t208 208.5t280.5 77.5q122 0 219.5 -48.5t156.5 -135.5l29 156h43l-174 -983q-35 -203 -178.5 -326t-347.5 -123 q-165 0 -269.5 82.5t-113.5 216.5zM188 389q0 -162 98 -270.5t257 -108.5q123 0 241.5 56.5t206.5 156.5l82 473q-51 100 -149.5 156.5t-221.5 56.5q-137 0 -256 -71.5t-188.5 -191.5t-69.5 -257z" />
<glyph unicode="h" horiz-adv-x="1171" d="M109 0l256 1454h43l-121 -682q80 85 194 132.5t238 47.5q170 0 257 -106q63 -76 63 -194q0 -45 -9 -95l-98 -557h-43l98 557q8 46 8 87q0 104 -55 172q-77 94 -227 95q-125 0 -244 -56.5t-195 -152.5l-122 -702h-43z" />
<glyph unicode="i" horiz-adv-x="505" d="M150 0l161 922h43l-161 -922h-43zM352 1288q0 20 13.5 33.5t33.5 13.5t33.5 -13.5t13.5 -33.5t-13.5 -33.5t-33.5 -13.5t-33.5 13.5t-13.5 33.5z" />
<glyph unicode="j" horiz-adv-x="520" d="M-123 -360l6 41q129 0 196 69t95 230l166 942h43l-166 -942q-32 -184 -110 -262t-230 -78zM369 1288q0 20 13.5 33.5t33.5 13.5t33.5 -13.5t13.5 -33.5t-13.5 -33.5t-33.5 -13.5t-33.5 13.5t-13.5 33.5z" />
<glyph unicode="k" horiz-adv-x="1130" d="M113 0l256 1454h43l-193 -1089l733 557h66l-508 -390l446 -532h-57l-424 506l-266 -203l-53 -303h-43z" />
<glyph unicode="l" horiz-adv-x="452" d="M123 0l258 1454h43l-258 -1454h-43z" />
<glyph unicode="m" horiz-adv-x="1839" d="M109 0l163 922h43l-26 -146q76 84 179 130t222 46q120 0 194.5 -56t94.5 -161q78 102 191 159.5t245 57.5q164 0 240 -104q53 -73 53 -186q0 -49 -10 -105l-99 -557h-43l99 557q9 52 9 97q0 100 -45 164q-66 94 -210 93q-127 0 -238.5 -60.5t-185.5 -166.5 q0 -71 -10 -127l-98 -557h-43l98 557q9 52 9 96q0 101 -46 165q-67 94 -211 93q-120 0 -227 -54.5t-181 -151.5l-124 -705h-43z" />
<glyph unicode="n" horiz-adv-x="1171" d="M109 0l163 922h43l-26 -148q80 83 193.5 130.5t236.5 47.5q170 0 257 -106q63 -76 63 -194q0 -45 -9 -95l-98 -557h-43l98 557q8 46 8 87q0 104 -55 172q-77 94 -227 95q-124 0 -242.5 -55t-194.5 -151l-124 -705h-43z" />
<glyph unicode="o" horiz-adv-x="1288" d="M143 389q0 111 49.5 215t130.5 179.5t188 121t218 45.5q180 0 296 -120.5t116 -299.5q0 -111 -49.5 -215t-130 -179.5t-187.5 -121t-217 -45.5q-181 0 -297.5 120.5t-116.5 299.5zM190 395q0 -164 104.5 -274.5t268.5 -110.5q100 0 197.5 42t170.5 111t118 164.5 t45 196.5q0 162 -104.5 273.5t-266.5 111.5q-101 0 -198.5 -42t-171 -111t-118.5 -164.5t-45 -196.5z" />
<glyph unicode="p" horiz-adv-x="1269" d="M14 -532l258 1454h43l-28 -156q187 184 422 184q181 0 297 -120.5t116 -299.5q0 -111 -49.5 -215t-130 -179.5t-187.5 -121t-218 -45.5q-237 0 -359 185l-121 -686h-43zM190 223q52 -101 142.5 -157t210.5 -56q135 0 258 70t198.5 189.5t75.5 254.5q0 162 -105.5 273.5 t-267.5 111.5q-120 0 -230 -56t-198 -157z" />
<glyph unicode="q" d="M143 389q0 111 49.5 215t130.5 179.5t188 121t218 45.5q236 0 358 -184l27 156h43l-256 -1454h-43l121 688q-184 -187 -422 -187q-181 0 -297.5 120.5t-116.5 299.5zM190 395q0 -164 104.5 -274.5t268.5 -110.5q120 0 230 56.5t198 158.5l84 471q-52 102 -141.5 157.5 t-210.5 55.5q-101 0 -198.5 -42t-171 -111t-118.5 -164.5t-45 -196.5z" />
<glyph unicode="r" horiz-adv-x="671" d="M109 0l163 922h43l-36 -211q80 111 195.5 176t234.5 65l-7 -41q-121 0 -240.5 -78.5t-199.5 -209.5l-110 -623h-43z" />
<glyph unicode="s" horiz-adv-x="1116" d="M117 258h45q9 -115 98 -181.5t250 -66.5q164 0 263 67.5t99 182.5q0 147 -180 178l-213 35q-120 21 -178.5 67.5t-58.5 133.5q0 125 110.5 201.5t280.5 76.5q169 0 267 -76q87 -68 86 -175q0 -13 -1 -27h-41v16q0 102 -74 159q-80 62 -237 62q-159 0 -253.5 -62.5 t-94.5 -166.5q0 -69 47.5 -108.5t154.5 -59.5l195 -33q50 -9 86 -21t72.5 -35.5t55.5 -63.5t19 -95q0 -137 -113 -217t-292 -80q-177 0 -281 78t-112 211z" />
<glyph unicode="t" horiz-adv-x="845" d="M88 881l6 41h287l61 348h43l-61 -348h356l-6 -41h-356l-101 -572q-8 -44 -8 -83q1 -79 35 -134q52 -82 158 -82q64 0 160 21l2 -37q-103 -25 -170 -25q-126 -1 -187 93q-42 64 -42 157q0 42 9 90l101 572h-287z" />
<glyph unicode="u" horiz-adv-x="1196" d="M141 365l99 557h43l-99 -557q-8 -45 -8 -84q0 -106 57 -176q78 -95 228 -95q124 0 242 55.5t194 151.5l123 705h43l-162 -922h-43l27 147q-80 -83 -194.5 -130.5t-237.5 -47.5q-169 0 -257 106q-64 78 -64 197q0 44 9 93z" />
<glyph unicode="v" horiz-adv-x="1161" d="M180 922h47l277 -871l583 871h50l-615 -922h-51z" />
<glyph unicode="w" horiz-adv-x="1570" d="M184 922h45l174 -856l441 856h43l137 -861l479 861h47l-512 -922h-47l-137 850l-434 -850h-47z" />
<glyph unicode="x" horiz-adv-x="1060" d="M10 0l496 461l-313 461h51l295 -428l450 428h62l-486 -463l324 -459h-53l-306 426l-458 -426h-62z" />
<glyph unicode="y" horiz-adv-x="1148" d="M150 922h49l295 -932l606 932h55l-946 -1454h-55l307 471z" />
<glyph unicode="z" horiz-adv-x="1001" d="M41 0l6 35l844 846h-666l8 41h728l-7 -35l-845 -846h696l-8 -41h-756z" />
<glyph unicode="{" horiz-adv-x="733" d="M115 623l8 41q129 0 195 68.5t94 230.5l41 223q26 153 120 246.5t220 93.5l-9 -41q-104 0 -185 -87.5t-103 -211.5l-41 -223q-23 -137 -71.5 -214t-129.5 -106q72 -29 92.5 -106t-4.5 -213l-39 -224q-23 -135 27 -217t157 -82l-6 -41q-126 0 -186.5 93t-34.5 247l39 224 q29 161 -13 230t-171 69z" />
<glyph unicode="|" horiz-adv-x="516" d="M96 -328l322 1823h45l-322 -1823h-45z" />
<glyph unicode="}" horiz-adv-x="733" d="M4 -240l8 41q104 0 185.5 87.5t103.5 211.5l41 224q23 137 71 213.5t130 105.5q-72 29 -92.5 106.5t4.5 213.5l39 223q23 135 -27.5 217t-157.5 82l6 41q126 0 187 -93t35 -247l-39 -223q-29 -161 13 -230t171 -69l-8 -41q-129 0 -195 -68.5t-94 -230.5l-41 -224 q-26 -153 -120 -246.5t-220 -93.5z" />
<glyph unicode="~" horiz-adv-x="966" d="M190 662q0 63 30 104t73.5 53.5t89.5 6.5t80 -29l147 -105q29 -19 64.5 -24t67.5 5t53.5 40.5t21.5 77.5h41q0 -63 -30 -104.5t-72.5 -54.5t-89 -7t-80.5 30l-148 105q-38 26 -86 27.5t-84.5 -31t-36.5 -94.5h-41z" />
<glyph unicode="&#xa1;" horiz-adv-x="501" d="M68 -455l188 1065h45l-188 -1065h-45zM283 907q0 20 13.5 33.5t33.5 13.5t33.5 -13.5t13.5 -33.5t-13.5 -33.5t-33.5 -13.5t-33.5 13.5t-13.5 33.5z" />
<glyph unicode="&#xa2;" horiz-adv-x="1187" d="M150 461q36 193 178.5 330.5t333.5 156.5l49 279h43l-49 -277h8q156 0 251.5 -81.5t104.5 -217.5h-47q-9 118 -94.5 188t-222.5 70q-190 0 -332.5 -129.5t-177.5 -318.5q-21 -123 14 -225t123.5 -163t214.5 -61q137 0 247 70t160 188h47q-56 -136 -181 -217.5t-281 -81.5 h-9l-45 -260h-43l47 262q-187 19 -280 157t-59 331z" />
<glyph unicode="&#xa3;" horiz-adv-x="1320" d="M12 0l8 41h179l98 553h-180l8 41h178l59 338q35 202 183 326t354 124q190 0 293.5 -105.5t89.5 -283.5h-45q11 159 -82.5 253.5t-263.5 94.5q-186 0 -318.5 -112t-164.5 -297l-60 -338h557l-8 -41h-555l-98 -553h858l-8 -41h-1082z" />
<glyph unicode="&#xa5;" horiz-adv-x="1310" d="M193 221l8 43h389l28 172h-387l9 43h387l8 47l-438 867h51l414 -820l708 820h55l-745 -867l-8 -47h403l-8 -43h-403l-29 -172h401l-8 -43h-401l-39 -221h-45l39 221h-389z" />
<glyph unicode="&#xa6;" horiz-adv-x="518" d="M96 -328l144 807h45l-144 -807h-45zM276 688l142 807h45l-141 -807h-46z" />
<glyph unicode="&#xa7;" horiz-adv-x="1103" d="M61 -16h41q-4 -125 78 -196t226 -71q157 0 260.5 76t103.5 209q0 77 -54.5 128t-211.5 130l-172 88q-109 55 -163 115.5t-54 140.5q0 62 26 114.5t69.5 87t93.5 56.5t104 31q-117 81 -117 188q0 149 115.5 240.5t295.5 91.5q162 0 254 -81t86 -226h-41q4 125 -77.5 195.5 t-225.5 70.5q-156 0 -259 -77t-103 -210q0 -74 62 -129t202 -127l172 -88q109 -58 163 -117.5t54 -138.5q0 -62 -26 -113.5t-69 -86t-92.5 -56t-103.5 -30.5q115 -83 115 -191q0 -149 -115 -240.5t-295 -91.5q-162 0 -255 82t-87 226zM160 606q0 -63 45 -116t153 -109 l160 -82q10 -6 56 -29.5t69 -36.5q79 4 145.5 31.5t111 84t44.5 132.5q0 64 -46 118t-153 110l-159 84q-20 11 -121 63q-81 -3 -148 -30t-112 -84.5t-45 -135.5z" />
<glyph unicode="&#xa8;" horiz-adv-x="1228" d="M434 1227q0 22 14.5 36.5t36.5 14.5t37 -14.5t15 -36.5t-15 -36.5t-37 -14.5t-36.5 14.5t-14.5 36.5zM774 1227q0 22 14.5 36.5t36.5 14.5t37 -14.5t15 -36.5t-15 -36.5t-37 -14.5t-36.5 14.5t-14.5 36.5z" />
<glyph unicode="&#xa9;" horiz-adv-x="1798" d="M195 696q0 153 59.5 288.5t160.5 231.5t238 151.5t287 55.5q201 0 372 -94t272.5 -262t101.5 -371t-101.5 -371t-272.5 -262t-372 -94q-150 0 -287 55.5t-238 151.5t-160.5 231.5t-59.5 288.5zM236 696q0 -190 96.5 -349t257.5 -249t348 -90t348.5 90t258.5 249t97 349 t-97 349t-258.5 249t-348.5 90t-348 -90t-257.5 -249t-96.5 -349zM543 696q0 167 116.5 285.5t278.5 118.5q131 0 233.5 -76t133.5 -195h-43q-28 103 -118 168.5t-206 65.5q-146 0 -250 -107.5t-104 -259.5t104 -259t250 -107q117 0 206.5 65t117.5 168h43 q-31 -119 -133 -194.5t-234 -75.5q-162 0 -278.5 118t-116.5 285z" />
<glyph unicode="&#xaa;" horiz-adv-x="724" d="M162 924q0 85 68 140.5t202 55.5h275q20 113 -27 181.5t-145 68.5q-77 0 -145 -36t-91 -93h-43q25 73 108 118.5t177 45.5q115 0 171 -78.5t33 -206.5l-59 -340h-39l15 80q-130 -100 -285 -100q-98 0 -156.5 44.5t-58.5 119.5zM203 930q0 -61 49.5 -95t136.5 -34 q161 0 281 106l30 176h-274q-114 0 -168.5 -43t-54.5 -110z" />
<glyph unicode="&#xab;" horiz-adv-x="827" d="M92 516l301 295h53l-301 -299l197 -291h-51zM379 516l301 295h53l-301 -299l197 -291h-51z" />
<glyph unicode="&#xad;" horiz-adv-x="1134" d="M262 553l8 43h643l-8 -43h-643z" />
<glyph unicode="&#xae;" horiz-adv-x="1110" d="M205 983q0 123 61.5 224.5t165 158.5t225.5 57t226 -57t165.5 -158.5t61.5 -224.5t-61.5 -224.5t-165.5 -158.5t-226 -57t-225.5 57t-165 158.5t-61.5 224.5zM244 983q0 -112 57 -205.5t152 -146.5t204 -53q110 0 205 53t152 146.5t57 205.5t-57 206t-152.5 147 t-204.5 53t-204 -53t-152 -147t-57 -206zM492 741v490h194q70 0 119 -43t49 -109t-48.5 -107.5t-119.5 -41.5h-2l180 -189h-47l-178 189h-113v-189h-34zM526 963h160q54 0 92.5 32.5t38.5 83.5q0 53 -38.5 86t-92.5 33h-160v-235z" />
<glyph unicode="&#xaf;" horiz-adv-x="1228" d="M356 1208l9 37h565l-8 -37h-566z" />
<glyph unicode="&#xb0;" horiz-adv-x="1028" d="M297 1100q0 137 95.5 230t234.5 93t234 -93t95 -230q0 -135 -95 -228.5t-234 -93.5t-234.5 93.5t-95.5 228.5zM342 1100q0 -117 83 -198t202 -81t201.5 81t82.5 198q0 118 -82.5 200t-201.5 82t-202 -82t-83 -200z" />
<glyph unicode="&#xb1;" horiz-adv-x="1398" d="M184 113l9 43h905l-8 -43h-906zM283 666l8 43h430l65 370h48l-66 -370h428l-8 -43h-428l-66 -369h-47l66 369h-430z" />
<glyph unicode="&#xb2;" horiz-adv-x="722" d="M145 662l5 24l301 242q57 46 84 68t62.5 55.5t50 57t25.5 53.5t11 63q0 67 -46 109t-128 42q-87 0 -148 -45t-83 -121h-43q25 94 98.5 149.5t179.5 55.5q100 0 156.5 -51.5t56.5 -132.5q0 -44 -13 -80.5t-46 -76.5t-73.5 -76.5t-111.5 -94.5l-252 -203h422l-6 -38h-502z " />
<glyph unicode="&#xb3;" horiz-adv-x="745" d="M158 831h45q-3 -65 51 -104t147 -39q108 0 179 52.5t71 136.5q0 63 -48.5 101t-129.5 38h-67l8 37h67v-2v2q90 0 150.5 52.5t60.5 131.5q0 64 -47 101.5t-129 37.5q-84 0 -142.5 -38t-80.5 -103h-43q25 83 97.5 131.5t174.5 48.5q98 0 154.5 -47t56.5 -125 q0 -73 -41 -128.5t-112 -80.5q114 -39 114 -153q0 -102 -82.5 -167t-212.5 -65q-115 0 -181 49.5t-60 132.5z" />
<glyph unicode="&#xb4;" horiz-adv-x="1228" d="M614 1167l228 279h51l-229 -279h-50z" />
<glyph unicode="&#xb6;" horiz-adv-x="1456" d="M102 952q0 129 64 230.5t172.5 156t241.5 54.5h671v-1721h-45v1680h-364v-1680h-45v840h-217q-133 0 -241.5 54.5t-172.5 155.5t-64 230zM150 952q0 -177 124 -288t306 -111h217v799h-217q-182 0 -306 -111.5t-124 -288.5z" />
<glyph unicode="&#xb7;" horiz-adv-x="299" d="M113 528q0 20 13.5 33.5t33.5 13.5t33.5 -13.5t13.5 -33.5t-13.5 -33.5t-33.5 -13.5t-33.5 13.5t-13.5 33.5z" />
<glyph unicode="&#xb8;" horiz-adv-x="1228" d="M360 -449l148 273h49l-149 -273h-48z" />
<glyph unicode="&#xb9;" horiz-adv-x="589" d="M88 662l8 38h232l114 650l-229 -78l6 41l254 86h23l-125 -699h213l-9 -38h-487z" />
<glyph unicode="&#xba;" horiz-adv-x="796" d="M188 1030q0 100 55.5 187t145.5 137.5t189 50.5q120 0 198 -80.5t78 -198.5q0 -151 -119.5 -263.5t-271.5 -112.5q-120 0 -197.5 80t-77.5 200zM233 1034q0 -105 66 -175.5t170 -70.5q133 0 236.5 99t103.5 233q0 104 -67.5 175t-170.5 71q-134 0 -236 -99t-102 -233z " />
<glyph unicode="&#xbb;" horiz-adv-x="827" d="M115 221l301 299l-197 291h51l199 -295l-301 -295h-53zM401 221l301 299l-196 291h51l199 -295l-301 -295h-54z" />
<glyph unicode="&#xbc;" horiz-adv-x="1693" d="M88 659l8 39h232l114 650l-229 -78l6 41l254 86h23l-125 -699h213l-9 -39h-487zM352 0l910 1393h49l-910 -1393h-49zM934 170l6 29l342 538h45l-330 -526h377l43 250h41l-43 -250h137l-8 -41h-137l-29 -170h-41l29 170h-432z" />
<glyph unicode="&#xbd;" horiz-adv-x="1705" d="M88 659l8 39h232l114 650l-229 -78l6 41l254 86h23l-125 -699h213l-9 -39h-487zM352 0l910 1393h49l-910 -1393h-49zM1016 0l4 25l301 241q57 46 84 68t62.5 55.5t50 57t25.5 53.5t11 63q0 67 -46 109.5t-128 42.5q-87 0 -148 -45t-83 -121h-43q25 94 98.5 149.5 t179.5 55.5q100 0 156.5 -52t56.5 -133q0 -57 -27 -107.5t-74 -96.5t-142 -123l-252 -203h422l-6 -39h-502z" />
<glyph unicode="&#xbe;" horiz-adv-x="1697" d="M158 838h45q-3 -65 51 -104.5t147 -39.5q108 0 179 52.5t71 136.5q0 63 -48.5 101t-129.5 38h-67l8 37h67v-2v2q90 0 150.5 52.5t60.5 131.5q0 64 -47 101.5t-129 37.5q-84 0 -142.5 -38t-80.5 -103h-43q25 83 97.5 131.5t174.5 48.5q98 0 154.5 -47t56.5 -125 q0 -73 -41 -128.5t-112 -80.5q114 -39 114 -153q0 -102 -82.5 -167t-212.5 -65q-114 0 -180.5 50t-60.5 133zM356 0l910 1393h49l-909 -1393h-50zM934 170l6 29l342 538h45l-330 -526h377l43 250h41l-43 -250h137l-8 -41h-137l-29 -170h-41l29 170h-432z" />
<glyph unicode="&#xbf;" horiz-adv-x="1228" d="M109 43q0 128 69 238.5t191 176.5t268 66l41 234h41l-41 -275h-47q-130 0 -240.5 -60t-173.5 -159.5t-63 -212.5q0 -138 93 -231.5t245 -93.5q127 0 243 75.5t166 196.5h45q-56 -142 -186.5 -227.5t-276.5 -85.5q-170 0 -272 102t-102 256zM709 1077q0 20 13.5 33.5 t33.5 13.5t33.5 -13.5t13.5 -33.5t-13.5 -33.5t-33.5 -13.5t-33.5 13.5t-13.5 33.5z" />
<glyph unicode="&#xc0;" horiz-adv-x="1517" d="M-2 0l899 1403h47l408 -1403h-47l-146 500h-788l-320 -500h-53zM397 541h750l-234 807zM729 1835h51l178 -279h-49z" />
<glyph unicode="&#xc1;" horiz-adv-x="1517" d="M-2 0l899 1403h47l408 -1403h-47l-146 500h-788l-320 -500h-53zM397 541h750l-234 807zM920 1556l227 279h51l-229 -279h-49z" />
<glyph unicode="&#xc2;" horiz-adv-x="1517" d="M-2 0l899 1403h47l408 -1403h-47l-146 500h-788l-320 -500h-53zM397 541h750l-234 807zM657 1565l314 278h73l207 -278h-53l-192 250l-285 -250h-64z" />
<glyph unicode="&#xc3;" horiz-adv-x="1517" d="M-2 0l899 1403h47l408 -1403h-47l-146 500h-788l-320 -500h-53zM397 541h750l-234 807zM662 1653q0 54 26 89.5t64 45.5t81 2.5t78 -33.5l76 -53q71 -52 132 -31t61 103h39q0 -73 -40 -112.5t-98 -37t-112 42.5l-78 55q-40 30 -84.5 33.5t-75.5 -24t-31 -80.5h-38z" />
<glyph unicode="&#xc4;" horiz-adv-x="1517" d="M-2 0l899 1403h47l408 -1403h-47l-146 500h-788l-320 -500h-53zM397 541h750l-234 807zM739 1657q0 22 15 36.5t37 14.5t36.5 -14.5t14.5 -36.5t-14.5 -36.5t-36.5 -14.5t-37 14.5t-15 36.5zM1079 1657q0 22 14.5 36.5t36.5 14.5t37 -14.5t15 -36.5t-15 -36.5t-37 -14.5 t-36.5 14.5t-14.5 36.5z" />
<glyph unicode="&#xc5;" horiz-adv-x="1517" d="M-2 0l899 1403h47l408 -1403h-47l-146 500h-788l-320 -500h-53zM397 541h750l-234 807zM782 1767q0 75 52 126t127 51t126.5 -51t51.5 -126t-51.5 -125.5t-126.5 -50.5t-127 50.5t-52 125.5zM821 1767q0 -58 40.5 -98.5t99.5 -40.5t99 40t40 99q0 57 -40.5 98.5 t-98.5 41.5t-99 -41.5t-41 -98.5z" />
<glyph unicode="&#xc6;" horiz-adv-x="2340" d="M-43 0l1450 1393h934l-8 -41h-881l-111 -635h799l-8 -41h-799l-110 -635h880l-8 -41h-926l88 500h-718l-523 -500h-59zM582 541h684l139 788z" />
<glyph unicode="&#xc7;" horiz-adv-x="1656" d="M184 696q35 197 161.5 364t310 264t380.5 97q244 0 396 -129.5t167 -337.5h-49q-15 189 -156 306.5t-366 117.5q-139 0 -274 -54t-241.5 -145.5t-182.5 -217.5t-101 -265q-33 -186 29.5 -342.5t202.5 -248t325 -91.5q225 0 408 117.5t266 306.5h49q-89 -208 -287 -337.5 t-442 -129.5q-197 0 -346.5 97t-216.5 264t-33 364zM557 -449l148 273h49l-150 -273h-47z" />
<glyph unicode="&#xc8;" horiz-adv-x="1366" d="M154 0l245 1393h926l-8 -41h-881l-110 -635h798l-8 -41h-799l-110 -635h880l-8 -41h-925zM672 1835h51l178 -279h-49z" />
<glyph unicode="&#xc9;" horiz-adv-x="1366" d="M154 0l245 1393h926l-8 -41h-881l-110 -635h798l-8 -41h-799l-110 -635h880l-8 -41h-925zM862 1556l228 279h51l-230 -279h-49z" />
<glyph unicode="&#xca;" horiz-adv-x="1366" d="M154 0l245 1393h926l-8 -41h-881l-110 -635h798l-8 -41h-799l-110 -635h880l-8 -41h-925zM600 1565l313 278h74l207 -278h-53l-193 250l-284 -250h-64z" />
<glyph unicode="&#xcb;" horiz-adv-x="1366" d="M154 0l245 1393h926l-8 -41h-881l-110 -635h798l-8 -41h-799l-110 -635h880l-8 -41h-925zM682 1657q0 22 14.5 36.5t36.5 14.5t36.5 -14.5t14.5 -36.5t-14.5 -36.5t-36.5 -14.5t-36.5 14.5t-14.5 36.5zM1022 1657q0 22 14.5 36.5t36.5 14.5t36.5 -14.5t14.5 -36.5 t-14.5 -36.5t-36.5 -14.5t-36.5 14.5t-14.5 36.5z" />
<glyph unicode="&#xcc;" horiz-adv-x="516" d="M154 0l245 1393h45l-245 -1393h-45zM231 1835h52l178 -279h-49z" />
<glyph unicode="&#xcd;" horiz-adv-x="516" d="M154 0l245 1393h45l-245 -1393h-45zM422 1556l227 279h51l-229 -279h-49z" />
<glyph unicode="&#xce;" horiz-adv-x="516" d="M154 0l245 1393h45l-245 -1393h-45zM160 1565l313 278h74l207 -278h-54l-192 250l-285 -250h-63z" />
<glyph unicode="&#xcf;" horiz-adv-x="516" d="M154 0l245 1393h45l-245 -1393h-45zM242 1657q0 22 14.5 36.5t36.5 14.5t36.5 -14.5t14.5 -36.5t-14.5 -36.5t-36.5 -14.5t-36.5 14.5t-14.5 36.5zM582 1657q0 22 14.5 36.5t36.5 14.5t36.5 -14.5t14.5 -36.5t-14.5 -36.5t-36.5 -14.5t-36.5 14.5t-14.5 36.5z" />
<glyph unicode="&#xd0;" horiz-adv-x="1558" d="M76 676l8 41h197l118 676h447q285 0 450.5 -155.5t165.5 -414.5q0 -235 -112 -423.5t-309 -294t-441 -105.5h-446l118 676h-196zM207 41h401q171 0 320 58.5t255.5 160t168 246.5t61.5 311q0 242 -154.5 388.5t-418.5 146.5h-404l-110 -635h407l-8 -41h-408z" />
<glyph unicode="&#xd1;" horiz-adv-x="1601" d="M154 0l245 1393h52l798 -1334l236 1334h45l-246 -1393h-53l-797 1333l-235 -1333h-45zM727 1653q0 54 26 89.5t64.5 45.5t81.5 2.5t78 -33.5l76 -53q71 -52 131.5 -31t60.5 103h39q0 -73 -40 -112.5t-98 -37t-112 42.5l-78 55q-40 30 -84 33.5t-75 -24t-31 -80.5h-39z " />
<glyph unicode="&#xd2;" horiz-adv-x="1744" d="M176 592q0 164 73 318t192 265.5t277 178.5t322 67q176 0 316 -82t217.5 -223.5t77.5 -314.5q0 -132 -47 -258.5t-130 -228.5t-191 -180t-237 -120.5t-260 -42.5q-175 0 -315.5 82.5t-217.5 224t-77 314.5zM223 598q0 -162 71.5 -295t202.5 -211t296 -78 q154 0 302.5 63.5t260 168.5t180 250t68.5 299q0 121 -42 228.5t-116.5 185.5t-181 123.5t-230.5 45.5q-154 0 -302.5 -63t-260 -168t-180 -250t-68.5 -299zM862 1835h51l179 -279h-50z" />
<glyph unicode="&#xd3;" horiz-adv-x="1744" d="M176 592q0 164 73 318t192 265.5t277 178.5t322 67q176 0 316 -82t217.5 -223.5t77.5 -314.5q0 -132 -47 -258.5t-130 -228.5t-191 -180t-237 -120.5t-260 -42.5q-175 0 -315.5 82.5t-217.5 224t-77 314.5zM223 598q0 -162 71.5 -295t202.5 -211t296 -78 q154 0 302.5 63.5t260 168.5t180 250t68.5 299q0 121 -42 228.5t-116.5 185.5t-181 123.5t-230.5 45.5q-154 0 -302.5 -63t-260 -168t-180 -250t-68.5 -299zM1053 1556l227 279h51l-229 -279h-49z" />
<glyph unicode="&#xd4;" horiz-adv-x="1744" d="M176 592q0 164 73 318t192 265.5t277 178.5t322 67q176 0 316 -82t217.5 -223.5t77.5 -314.5q0 -132 -47 -258.5t-130 -228.5t-191 -180t-237 -120.5t-260 -42.5q-175 0 -315.5 82.5t-217.5 224t-77 314.5zM223 598q0 -162 71.5 -295t202.5 -211t296 -78 q154 0 302.5 63.5t260 168.5t180 250t68.5 299q0 121 -42 228.5t-116.5 185.5t-181 123.5t-230.5 45.5q-154 0 -302.5 -63t-260 -168t-180 -250t-68.5 -299zM791 1565l313 278h74l206 -278h-53l-192 250l-285 -250h-63z" />
<glyph unicode="&#xd5;" horiz-adv-x="1744" d="M176 592q0 164 73 318t192 265.5t277 178.5t322 67q176 0 316 -82t217.5 -223.5t77.5 -314.5q0 -132 -47 -258.5t-130 -228.5t-191 -180t-237 -120.5t-260 -42.5q-175 0 -315.5 82.5t-217.5 224t-77 314.5zM223 598q0 -162 71.5 -295t202.5 -211t296 -78 q154 0 302.5 63.5t260 168.5t180 250t68.5 299q0 121 -42 228.5t-116.5 185.5t-181 123.5t-230.5 45.5q-154 0 -302.5 -63t-260 -168t-180 -250t-68.5 -299zM795 1653q0 54 26 89.5t64 45.5t81 2.5t78 -33.5l76 -53q70 -52 131.5 -31t61.5 103h39q0 -73 -40 -112.5t-98 -37 t-112 42.5l-78 55q-40 30 -84 33.5t-75 -24t-31 -80.5h-39z" />
<glyph unicode="&#xd6;" horiz-adv-x="1757" d="M176 592q0 164 73 318t192 265.5t277 178.5t322 67q176 0 316 -82t217.5 -223.5t77.5 -314.5q0 -132 -47 -258.5t-130 -228.5t-191 -180t-237 -120.5t-260 -42.5q-175 0 -315.5 82.5t-217.5 224t-77 314.5zM223 598q0 -162 71.5 -295t202.5 -211t296 -78 q154 0 302.5 63.5t260 168.5t180 250t68.5 299q0 121 -42 228.5t-116.5 185.5t-181 123.5t-230.5 45.5q-154 0 -302.5 -63t-260 -168t-180 -250t-68.5 -299zM903 1657q0 22 14.5 36.5t36.5 14.5t37 -14.5t15 -36.5t-15 -36.5t-37 -14.5t-36.5 14.5t-14.5 36.5zM1243 1657 q0 22 14.5 36.5t36.5 14.5t37 -14.5t15 -36.5t-15 -36.5t-37 -14.5t-36.5 14.5t-14.5 36.5z" />
<glyph unicode="&#xd7;" horiz-adv-x="1331" d="M217 303l410 348l-279 342l37 31l279 -342l409 348l33 -37l-410 -348l287 -348l-37 -31l-287 348l-409 -348z" />
<glyph unicode="&#xd8;" horiz-adv-x="1757" d="M166 18l160 156q-150 177 -150 418q0 164 73 318t192 265.5t277 178.5t322 67q240 0 404 -145l158 156l30 -29l-157 -156q84 -86 130 -200.5t46 -245.5q0 -132 -47 -258.5t-130 -228.5t-191 -180t-237 -120.5t-260 -42.5q-129 0 -240 45.5t-192 126.5l-157 -153zM223 598 q0 -230 137 -389l1049 1034q-154 135 -375 135q-154 0 -302.5 -63t-260 -168t-180 -250t-68.5 -299zM387 178q76 -78 180.5 -121t225.5 -43q154 0 302.5 63.5t260 168.5t180 250t68.5 299q0 123 -42.5 231t-121.5 188z" />
<glyph unicode="&#xd9;" horiz-adv-x="1579" d="M233 565l146 828h45l-145 -828q-27 -154 14 -280t148 -200.5t261 -74.5q232 0 407.5 159.5t217.5 395.5l146 828h45l-146 -828q-22 -124 -82 -233.5t-147 -189.5t-202 -126.5t-241 -46.5q-167 0 -284.5 79.5t-164.5 215t-18 301.5zM737 1835h51l179 -279h-49z" />
<glyph unicode="&#xda;" horiz-adv-x="1579" d="M233 565l146 828h45l-145 -828q-27 -154 14 -280t148 -200.5t261 -74.5q232 0 407.5 159.5t217.5 395.5l146 828h45l-146 -828q-22 -124 -82 -233.5t-147 -189.5t-202 -126.5t-241 -46.5q-167 0 -284.5 79.5t-164.5 215t-18 301.5zM928 1556l227 279h51l-229 -279h-49z " />
<glyph unicode="&#xdb;" horiz-adv-x="1579" d="M233 565l146 828h45l-145 -828q-27 -154 14 -280t148 -200.5t261 -74.5q232 0 407.5 159.5t217.5 395.5l146 828h45l-146 -828q-22 -124 -82 -233.5t-147 -189.5t-202 -126.5t-241 -46.5q-167 0 -284.5 79.5t-164.5 215t-18 301.5zM666 1565l313 278h74l207 -278h-54 l-192 250l-285 -250h-63z" />
<glyph unicode="&#xdc;" horiz-adv-x="1579" d="M233 565l146 828h45l-145 -828q-27 -154 14 -280t148 -200.5t261 -74.5q232 0 407.5 159.5t217.5 395.5l146 828h45l-146 -828q-22 -124 -82 -233.5t-147 -189.5t-202 -126.5t-241 -46.5q-167 0 -284.5 79.5t-164.5 215t-18 301.5zM748 1657q0 22 14.5 36.5t36.5 14.5 t36.5 -14.5t14.5 -36.5t-14.5 -36.5t-36.5 -14.5t-36.5 14.5t-14.5 36.5zM1087 1657q0 22 15 36.5t37 14.5t36.5 -14.5t14.5 -36.5t-14.5 -36.5t-36.5 -14.5t-37 14.5t-15 36.5z" />
<glyph unicode="&#xdd;" horiz-adv-x="1310" d="M197 1393h51l414 -820l708 820h55l-745 -867l-92 -526h-45l92 526zM770 1556l227 279h52l-230 -279h-49z" />
<glyph unicode="&#xde;" horiz-adv-x="1366" d="M154 0l245 1393h45l-43 -246h402q205 0 325.5 -102t120.5 -271q0 -223 -170 -365.5t-432 -142.5h-401l-47 -266h-45zM252 307h401q156 0 281.5 58.5t196.5 164t71 238.5q0 153 -109.5 245.5t-297.5 92.5h-402z" />
<glyph unicode="&#xdf;" horiz-adv-x="1206" d="M92 0l223 1268q23 126 113.5 202t216.5 76l-6 -41q-107 0 -184 -65t-97 -172l-61 -346h848l-6 -33l-555 -543h63q178 0 287.5 -82.5t109.5 -234.5q0 -92 -37.5 -175.5t-106 -149.5t-175.5 -105t-236 -39q-176 0 -339 82l8 45q153 -86 344 -86q119 0 216 36.5t157 97 t92 135t32 153.5q0 136 -99.5 209t-258.5 73h-137l4 23l565 553h-782l-156 -881h-43z" />
<glyph unicode="&#xe0;" d="M143 389q0 111 49.5 215t130.5 179.5t188 121t218 45.5q238 0 356 -184l29 156h43l-164 -922h-43l27 154q-185 -185 -420 -185q-181 0 -297.5 120.5t-116.5 299.5zM190 395q0 -164 104.5 -274.5t268.5 -110.5q120 0 230 56t196 157l84 473q-50 101 -140 157t-210 56 q-101 0 -198.5 -42t-171 -111t-118.5 -164.5t-45 -196.5zM547 1405h51l178 -279h-49z" />
<glyph unicode="&#xe1;" d="M143 389q0 111 49.5 215t130.5 179.5t188 121t218 45.5q238 0 356 -184l29 156h43l-164 -922h-43l27 154q-185 -185 -420 -185q-181 0 -297.5 120.5t-116.5 299.5zM190 395q0 -164 104.5 -274.5t268.5 -110.5q120 0 230 56t196 157l84 473q-50 101 -140 157t-210 56 q-101 0 -198.5 -42t-171 -111t-118.5 -164.5t-45 -196.5zM735 1124l228 279h51l-230 -279h-49z" />
<glyph unicode="&#xe2;" d="M143 389q0 111 49.5 215t130.5 179.5t188 121t218 45.5q238 0 356 -184l29 156h43l-164 -922h-43l27 154q-185 -185 -420 -185q-181 0 -297.5 120.5t-116.5 299.5zM190 395q0 -164 104.5 -274.5t268.5 -110.5q120 0 230 56t196 157l84 473q-50 101 -140 157t-210 56 q-101 0 -198.5 -42t-171 -111t-118.5 -164.5t-45 -196.5zM510 1114l313 279h74l207 -279h-53l-193 250l-285 -250h-63z" />
<glyph unicode="&#xe3;" d="M143 389q0 111 49.5 215t130.5 179.5t188 121t218 45.5q238 0 356 -184l29 156h43l-164 -922h-43l27 154q-185 -185 -420 -185q-181 0 -297.5 120.5t-116.5 299.5zM190 395q0 -164 104.5 -274.5t268.5 -110.5q120 0 230 56t196 157l84 473q-50 101 -140 157t-210 56 q-101 0 -198.5 -42t-171 -111t-118.5 -164.5t-45 -196.5zM528 1223q0 54 26 89.5t64.5 45.5t81.5 2.5t78 -33.5l76 -53q70 -52 131.5 -31t61.5 103h38q0 -73 -39.5 -112.5t-97.5 -37t-112 42.5l-78 55q-40 30 -84.5 33.5t-75.5 -24t-31 -80.5h-39z" />
<glyph unicode="&#xe4;" d="M143 389q0 111 49.5 215t130.5 179.5t188 121t218 45.5q238 0 356 -184l29 156h43l-164 -922h-43l27 154q-185 -185 -420 -185q-181 0 -297.5 120.5t-116.5 299.5zM190 395q0 -164 104.5 -274.5t268.5 -110.5q120 0 230 56t196 157l84 473q-50 101 -140 157t-210 56 q-101 0 -198.5 -42t-171 -111t-118.5 -164.5t-45 -196.5zM557 1268q0 22 14.5 36.5t36.5 14.5t36.5 -14.5t14.5 -36.5t-14.5 -36.5t-36.5 -14.5t-36.5 14.5t-14.5 36.5zM897 1268q0 22 14.5 36.5t36.5 14.5t36.5 -14.5t14.5 -36.5t-14.5 -36.5t-36.5 -14.5t-36.5 14.5 t-14.5 36.5z" />
<glyph unicode="&#xe5;" d="M143 389q0 111 49.5 215t130.5 179.5t188 121t218 45.5q238 0 356 -184l29 156h43l-164 -922h-43l27 154q-185 -185 -420 -185q-181 0 -297.5 120.5t-116.5 299.5zM190 395q0 -164 104.5 -274.5t268.5 -110.5q120 0 230 56t196 157l84 473q-50 101 -140 157t-210 56 q-101 0 -198.5 -42t-171 -111t-118.5 -164.5t-45 -196.5zM600 1296q0 75 51.5 126t126.5 51t126.5 -51t51.5 -126t-51.5 -125.5t-126.5 -50.5t-126.5 50.5t-51.5 125.5zM639 1296q0 -58 40.5 -98.5t98.5 -40.5q59 0 99.5 40.5t40.5 98.5q0 57 -41 98.5t-99 41.5t-98.5 -41.5 t-40.5 -98.5z" />
<glyph unicode="&#xe6;" horiz-adv-x="1990" d="M94 215q0 124 95.5 197t275.5 73h453q6 24 12 45q19 171 -54.5 267t-240.5 96q-126 0 -218.5 -53.5t-129.5 -143.5h-49q45 109 152.5 173.5t252.5 64.5q156 0 240.5 -76t95.5 -213q75 137 207 221t284 84q131 0 221.5 -65t126 -178t13.5 -254q0 -7 -2 -9h-873 q-27 -181 71.5 -306.5t277.5 -125.5q125 0 229.5 53.5t157.5 143.5h49q-59 -108 -178.5 -173t-264.5 -65q-128 0 -222 61.5t-138 166.5q-106 -109 -240.5 -169.5t-277.5 -60.5q-150 0 -238 66t-88 180zM139 223q0 -95 79.5 -152t213.5 -57q135 0 263 58t229 166 q-30 104 -13 206h-454q-157 0 -237.5 -59.5t-80.5 -161.5zM969 485h821q22 185 -67 304.5t-261 119.5q-166 0 -300.5 -108t-186.5 -273z" />
<glyph unicode="&#xe7;" horiz-adv-x="1185" d="M150 461q37 206 195.5 347.5t367.5 141.5q156 0 251.5 -81.5t104.5 -217.5h-47q-9 118 -94.5 188t-222.5 70q-190 0 -332.5 -129.5t-177.5 -318.5q-21 -123 14 -225t123.5 -163t214.5 -61q137 0 247 70t160 188h47q-56 -136 -181 -217.5t-281 -81.5q-138 0 -236 66 t-137 177.5t-16 246.5zM299 -449l147 273h50l-150 -273h-47z" />
<glyph unicode="&#xe8;" horiz-adv-x="1220" d="M150 461q36 205 195.5 347t361.5 142q131 0 221.5 -65t125.5 -178t13 -254q0 -7 -2 -9h-872q-27 -181 71 -306.5t277 -125.5q125 0 229.5 53.5t157.5 143.5h49q-59 -108 -178 -173t-264 -65q-133 0 -230 66t-137.5 178t-17.5 246zM199 485h827q22 185 -67 304.5 t-261 119.5q-177 0 -318 -122t-181 -302zM520 1405h51l179 -279h-50z" />
<glyph unicode="&#xe9;" horiz-adv-x="1220" d="M150 461q36 205 195.5 347t361.5 142q131 0 221.5 -65t125.5 -178t13 -254q0 -7 -2 -9h-872q-27 -181 71 -306.5t277 -125.5q125 0 229.5 53.5t157.5 143.5h49q-59 -108 -178 -173t-264 -65q-133 0 -230 66t-137.5 178t-17.5 246zM199 485h827q22 185 -67 304.5 t-261 119.5q-177 0 -318 -122t-181 -302zM709 1124l227 279h51l-229 -279h-49z" />
<glyph unicode="&#xea;" horiz-adv-x="1220" d="M150 461q36 205 195.5 347t361.5 142q131 0 221.5 -65t125.5 -178t13 -254q0 -7 -2 -9h-872q-27 -181 71 -306.5t277 -125.5q125 0 229.5 53.5t157.5 143.5h49q-59 -108 -178 -173t-264 -65q-133 0 -230 66t-137.5 178t-17.5 246zM199 485h827q22 185 -67 304.5 t-261 119.5q-177 0 -318 -122t-181 -302zM483 1114l314 279h73l207 -279h-53l-193 250l-284 -250h-64z" />
<glyph unicode="&#xeb;" horiz-adv-x="1220" d="M150 461q36 205 195.5 347t361.5 142q131 0 221.5 -65t125.5 -178t13 -254q0 -7 -2 -9h-872q-27 -181 71 -306.5t277 -125.5q125 0 229.5 53.5t157.5 143.5h49q-59 -108 -178 -173t-264 -65q-133 0 -230 66t-137.5 178t-17.5 246zM199 485h827q22 185 -67 304.5 t-261 119.5q-177 0 -318 -122t-181 -302zM530 1268q0 22 15 36.5t37 14.5t36.5 -14.5t14.5 -36.5t-14.5 -36.5t-36.5 -14.5t-37 14.5t-15 36.5zM870 1268q0 22 15 36.5t37 14.5t36.5 -14.5t14.5 -36.5t-14.5 -36.5t-36.5 -14.5t-37 14.5t-15 36.5z" />
<glyph unicode="&#xec;" horiz-adv-x="452" d="M119 1405h51l178 -279h-49zM123 0l164 922h43l-164 -922h-43z" />
<glyph unicode="&#xed;" horiz-adv-x="452" d="M123 0l164 922h43l-164 -922h-43zM307 1124l228 279h51l-230 -279h-49z" />
<glyph unicode="&#xee;" horiz-adv-x="452" d="M82 1114l313 279h74l207 -279h-53l-193 250l-285 -250h-63zM123 0l164 922h43l-164 -922h-43z" />
<glyph unicode="&#xef;" horiz-adv-x="452" d="M123 0l164 922h43l-164 -922h-43zM129 1268q0 22 14.5 36.5t36.5 14.5t36.5 -14.5t14.5 -36.5t-14.5 -36.5t-36.5 -14.5t-36.5 14.5t-14.5 36.5zM469 1268q0 22 14.5 36.5t36.5 14.5t36.5 -14.5t14.5 -36.5t-14.5 -36.5t-36.5 -14.5t-36.5 14.5t-14.5 36.5z" />
<glyph unicode="&#xf0;" horiz-adv-x="1284" d="M143 387q0 111 49.5 216t130 180.5t187.5 121t217 45.5q136 0 238 -68t145 -184q-11 170 -82.5 310t-181.5 239l-389 -137l-6 39l360 127q-115 87 -262 127l61 20q144 -50 246 -131l158 56l6 -39l-133 -47q122 -108 192 -279t70 -352q0 -149 -50.5 -275.5t-133.5 -210 t-188 -130t-216 -46.5q-186 0 -302 120t-116 298zM188 395q0 -163 106 -274t269 -111q97 0 194 43.5t172.5 116t123 174.5t47.5 211q0 154 -105.5 254t-277.5 100q-132 0 -254.5 -70t-198.5 -190t-76 -254z" />
<glyph unicode="&#xf1;" horiz-adv-x="1171" d="M109 0l163 922h43l-26 -148q80 83 193.5 130.5t236.5 47.5q170 0 257 -105.5t54 -289.5l-98 -557h-43l98 557q30 165 -47 259.5t-227 94.5q-124 0 -242.5 -55t-194.5 -151l-124 -705h-43zM434 1223q0 54 26 89.5t64.5 45.5t81.5 2.5t78 -33.5l76 -53q70 -52 131 -31 t61 103h39q0 -73 -40 -112.5t-98 -37t-112 42.5l-77 55q-40 30 -84.5 33.5t-75.5 -24t-31 -80.5h-39z" />
<glyph unicode="&#xf2;" horiz-adv-x="1288" d="M143 389q0 111 49.5 215t130.5 179.5t188 121t218 45.5q180 0 296 -120.5t116 -299.5q0 -111 -49.5 -215t-130 -179.5t-187.5 -121t-217 -45.5q-181 0 -297.5 120.5t-116.5 299.5zM190 395q0 -164 104.5 -274.5t268.5 -110.5q100 0 197.5 42t170.5 111t118 164.5 t45 196.5q0 162 -104.5 273.5t-266.5 111.5q-101 0 -198.5 -42t-171 -111t-118.5 -164.5t-45 -196.5zM535 1405h51l178 -279h-49z" />
<glyph unicode="&#xf3;" horiz-adv-x="1288" d="M143 389q0 111 49.5 215t130.5 179.5t188 121t218 45.5q180 0 296 -120.5t116 -299.5q0 -111 -49.5 -215t-130 -179.5t-187.5 -121t-217 -45.5q-181 0 -297.5 120.5t-116.5 299.5zM190 395q0 -164 104.5 -274.5t268.5 -110.5q100 0 197.5 42t170.5 111t118 164.5 t45 196.5q0 162 -104.5 273.5t-266.5 111.5q-101 0 -198.5 -42t-171 -111t-118.5 -164.5t-45 -196.5zM723 1124l227 279h51l-229 -279h-49z" />
<glyph unicode="&#xf4;" horiz-adv-x="1288" d="M143 389q0 111 49.5 215t130.5 179.5t188 121t218 45.5q180 0 296 -120.5t116 -299.5q0 -111 -49.5 -215t-130 -179.5t-187.5 -121t-217 -45.5q-181 0 -297.5 120.5t-116.5 299.5zM190 395q0 -164 104.5 -274.5t268.5 -110.5q100 0 197.5 42t170.5 111t118 164.5 t45 196.5q0 162 -104.5 273.5t-266.5 111.5q-101 0 -198.5 -42t-171 -111t-118.5 -164.5t-45 -196.5zM498 1114l313 279h74l207 -279h-54l-192 250l-285 -250h-63z" />
<glyph unicode="&#xf5;" horiz-adv-x="1288" d="M143 389q0 111 49.5 215t130.5 179.5t188 121t218 45.5q180 0 296 -120.5t116 -299.5q0 -111 -49.5 -215t-130 -179.5t-187.5 -121t-217 -45.5q-181 0 -297.5 120.5t-116.5 299.5zM190 395q0 -164 104.5 -274.5t268.5 -110.5q100 0 197.5 42t170.5 111t118 164.5 t45 196.5q0 162 -104.5 273.5t-266.5 111.5q-101 0 -198.5 -42t-171 -111t-118.5 -164.5t-45 -196.5zM516 1223q0 54 26 89.5t64.5 45.5t81.5 2.5t78 -33.5l76 -53q70 -52 131 -31t61 103h39q0 -73 -40 -112.5t-98 -37t-112 42.5l-78 55q-40 30 -84 33.5t-75 -24t-31 -80.5 h-39z" />
<glyph unicode="&#xf6;" horiz-adv-x="1288" d="M143 389q0 111 49.5 215t130.5 179.5t188 121t218 45.5q180 0 296 -120.5t116 -299.5q0 -111 -49.5 -215t-130 -179.5t-187.5 -121t-217 -45.5q-181 0 -297.5 120.5t-116.5 299.5zM190 395q0 -164 104.5 -274.5t268.5 -110.5q100 0 197.5 42t170.5 111t118 164.5 t45 196.5q0 162 -104.5 273.5t-266.5 111.5q-101 0 -198.5 -42t-171 -111t-118.5 -164.5t-45 -196.5zM565 1268q0 22 14.5 36.5t36.5 14.5t37 -14.5t15 -36.5t-15 -36.5t-37 -14.5t-36.5 14.5t-14.5 36.5zM905 1268q0 22 14.5 36.5t36.5 14.5t37 -14.5t15 -36.5t-15 -36.5 t-37 -14.5t-36.5 14.5t-14.5 36.5z" />
<glyph unicode="&#xf7;" horiz-adv-x="1396" d="M274 625l9 43h905l-8 -43h-906zM616 274q0 20 14 34t34 14t33.5 -14t13.5 -34t-13.5 -33.5t-33.5 -13.5t-34 13.5t-14 33.5zM745 1016q0 20 14 33.5t34 13.5t33.5 -13.5t13.5 -33.5t-13.5 -33.5t-33.5 -13.5t-34 13.5t-14 33.5z" />
<glyph unicode="&#xf8;" horiz-adv-x="1288" d="M117 -2l119 119q-93 117 -93 272q0 111 49.5 215t130.5 179.5t188 121t218 45.5q151 0 262 -90l105 103l26 -29l-102 -100q121 -121 121 -304q0 -111 -49.5 -215t-130 -179.5t-187.5 -121t-217 -45.5q-175 0 -295 117l-119 -117zM190 395q0 -141 80 -245l688 677 q-98 82 -235 82q-101 0 -198.5 -42t-171 -111t-118.5 -164.5t-45 -196.5zM297 119q106 -109 266 -109q100 0 197.5 42t170.5 111t118 164.5t45 196.5q0 167 -107 277z" />
<glyph unicode="&#xf9;" horiz-adv-x="1171" d="M141 365l99 557h43l-99 -557q-29 -165 49 -260t228 -95q124 0 242 55.5t194 151.5l123 705h43l-162 -922h-43l27 147q-80 -83 -194.5 -130.5t-237.5 -47.5q-169 0 -256.5 106t-55.5 290zM467 1405h51l178 -279h-49z" />
<glyph unicode="&#xfa;" horiz-adv-x="1196" d="M141 365l99 557h43l-99 -557q-29 -165 49 -260t228 -95q124 0 242 55.5t194 151.5l123 705h43l-162 -922h-43l27 147q-80 -83 -194.5 -130.5t-237.5 -47.5q-169 0 -256.5 106t-55.5 290zM639 1124l227 279h52l-230 -279h-49z" />
<glyph unicode="&#xfb;" horiz-adv-x="1171" d="M141 365l99 557h43l-99 -557q-29 -165 49 -260t228 -95q124 0 242 55.5t194 151.5l123 705h43l-162 -922h-43l27 147q-80 -83 -194.5 -130.5t-237.5 -47.5q-169 0 -256.5 106t-55.5 290zM358 1114l314 279h73l207 -279h-53l-192 250l-285 -250h-64z" />
<glyph unicode="&#xfc;" horiz-adv-x="1171" d="M141 365l99 557h43l-99 -557q-29 -165 49 -260t228 -95q124 0 242 55.5t194 151.5l123 705h43l-162 -922h-43l27 147q-80 -83 -194.5 -130.5t-237.5 -47.5q-169 0 -256.5 106t-55.5 290zM457 1268q0 22 14.5 36.5t36.5 14.5t36.5 -14.5t14.5 -36.5t-14.5 -36.5 t-36.5 -14.5t-36.5 14.5t-14.5 36.5zM797 1268q0 22 14.5 36.5t36.5 14.5t36.5 -14.5t14.5 -36.5t-14.5 -36.5t-36.5 -14.5t-36.5 14.5t-14.5 36.5z" />
<glyph unicode="&#xfd;" horiz-adv-x="1148" d="M150 922h49l295 -932l606 932h55l-946 -1454h-55l307 471zM608 1124l228 279h51l-230 -279h-49z" />
<glyph unicode="&#xfe;" horiz-adv-x="1269" d="M14 -532l340 1925h43l-110 -629q183 186 422 186q181 0 297 -120.5t116 -299.5q0 -111 -49.5 -215t-130 -179.5t-187.5 -121t-218 -45.5q-237 0 -359 185l-121 -686h-43zM190 223q52 -102 142 -157.5t211 -55.5q135 0 258 70t198.5 189.5t75.5 254.5q0 162 -105.5 273.5 t-267.5 111.5q-120 0 -230 -56.5t-198 -158.5z" />
<glyph unicode="&#xff;" horiz-adv-x="1148" d="M150 922h49l295 -932l606 932h55l-946 -1454h-55l307 471zM430 1268q0 22 14.5 36.5t36.5 14.5t36.5 -14.5t14.5 -36.5t-14.5 -36.5t-36.5 -14.5t-36.5 14.5t-14.5 36.5zM770 1268q0 22 14.5 36.5t36.5 14.5t36.5 -14.5t14.5 -36.5t-14.5 -36.5t-36.5 -14.5t-36.5 14.5 t-14.5 36.5z" />
<glyph unicode="&#x152;" horiz-adv-x="2187" d="M158 594q0 222 122 405.5t333.5 288.5t465.5 105h1067l-8 -41h-881l-110 -635h799l-9 -41h-798l-111 -635h881l-8 -41h-1067q-153 0 -280 44.5t-213.5 123.5t-134.5 188.5t-48 237.5zM205 600q0 -246 173 -401.5t462 -155.5l143 2l229 1303l-141 2q-180 0 -340.5 -58 t-275.5 -157.5t-182.5 -239t-67.5 -295.5z" />
<glyph unicode="&#x153;" horiz-adv-x="2162" d="M143 389q0 111 49.5 215t130.5 179.5t188 121t218 45.5q157 0 268 -94.5t138 -243.5q70 150 207.5 244t299.5 94q131 0 221.5 -65t126 -178t13.5 -254q0 -7 -2 -9h-868q-1 -7 -4.5 -21.5t-4.5 -21.5q-11 -166 87.5 -277.5t265.5 -111.5q125 0 229.5 53.5t157.5 143.5h49 q-59 -108 -178.5 -173t-264.5 -65q-158 0 -261.5 90t-125.5 236q-74 -144 -219.5 -236t-306.5 -92q-181 0 -297.5 120.5t-116.5 299.5zM190 395q0 -164 104.5 -274.5t268.5 -110.5q174 0 323 116t193 284q1 8 3 25.5t3 25.5l9 35v28q0 162 -104.5 273.5t-266.5 111.5 q-101 0 -198.5 -42t-171 -111t-118.5 -164.5t-45 -196.5zM1139 485h823q22 185 -67 304.5t-261 119.5t-310 -116t-183 -289z" />
<glyph unicode="&#x178;" horiz-adv-x="1310" d="M197 1393h51l414 -820l708 820h55l-745 -867l-92 -526h-45l92 526zM590 1657q0 22 14.5 36.5t36.5 14.5t36.5 -14.5t14.5 -36.5t-14.5 -36.5t-36.5 -14.5t-36.5 14.5t-14.5 36.5zM930 1657q0 22 14.5 36.5t36.5 14.5t36.5 -14.5t14.5 -36.5t-14.5 -36.5t-36.5 -14.5 t-36.5 14.5t-14.5 36.5z" />
<glyph unicode="&#x2c6;" horiz-adv-x="1228" d="M352 1176l314 278h73l207 -278h-53l-193 249l-284 -249h-64z" />
<glyph unicode="&#x2dc;" horiz-adv-x="1228" d="M356 1264q0 54 26 89.5t64.5 45.5t81.5 2.5t78 -33.5l76 -53q70 -52 131 -31.5t61 102.5h39q0 -73 -39.5 -112t-97.5 -36.5t-112 42.5l-78 55q-40 30 -84.5 33.5t-75.5 -24t-31 -80.5h-39z" />
<glyph unicode="&#x2000;" horiz-adv-x="972" />
<glyph unicode="&#x2001;" horiz-adv-x="1944" />
<glyph unicode="&#x2002;" horiz-adv-x="972" />
<glyph unicode="&#x2003;" horiz-adv-x="1944" />
<glyph unicode="&#x2004;" horiz-adv-x="648" />
<glyph unicode="&#x2005;" horiz-adv-x="486" />
<glyph unicode="&#x2006;" horiz-adv-x="324" />
<glyph unicode="&#x2007;" horiz-adv-x="324" />
<glyph unicode="&#x2008;" horiz-adv-x="243" />
<glyph unicode="&#x2009;" horiz-adv-x="388" />
<glyph unicode="&#x200a;" horiz-adv-x="108" />
<glyph unicode="&#x2010;" horiz-adv-x="1134" d="M262 553l8 43h643l-8 -43h-643z" />
<glyph unicode="&#x2011;" horiz-adv-x="1134" d="M262 553l8 43h643l-8 -43h-643z" />
<glyph unicode="&#x2012;" horiz-adv-x="1134" d="M262 553l8 43h643l-8 -43h-643z" />
<glyph unicode="&#x2013;" horiz-adv-x="1509" d="M262 553l8 43h1018l-8 -43h-1018z" />
<glyph unicode="&#x2014;" horiz-adv-x="1945" d="M262 553l8 43h1454l-8 -43h-1454z" />
<glyph unicode="&#x2018;" horiz-adv-x="323" d="M195 1034q0 20 34 84l150 275h37l-164 -318q37 -6 37 -41q0 -20 -13.5 -33.5t-33.5 -13.5t-33.5 13.5t-13.5 33.5z" />
<glyph unicode="&#x2019;" horiz-adv-x="364" d="M193 993l163 318q-37 6 -37 41q0 20 14 33.5t34 13.5t33.5 -13.5t13.5 -33.5q0 -18 -35 -84l-150 -275h-36z" />
<glyph unicode="&#x201a;" horiz-adv-x="364" d="M-57 -328l163 318q-36 6 -36 41q0 20 13.5 33.5t33.5 13.5t33.5 -13.5t13.5 -33.5q0 -18 -35 -84l-149 -275h-37z" />
<glyph unicode="&#x201c;" horiz-adv-x="651" d="M205 1034q0 18 35 84l149 275h37l-164 -318q37 -6 37 -41q0 -20 -13.5 -33.5t-33.5 -13.5t-33.5 13.5t-13.5 33.5zM492 1034q0 20 34 84l150 275h37l-164 -318q37 -6 37 -41q0 -20 -13.5 -33.5t-33.5 -13.5t-33.5 13.5t-13.5 33.5z" />
<glyph unicode="&#x201d;" horiz-adv-x="653" d="M176 993l164 318q-37 6 -37 41q0 20 13.5 33.5t33.5 13.5t33.5 -13.5t13.5 -33.5q0 -18 -35 -84l-149 -275h-37zM465 993l164 318q-37 6 -37 41q0 20 13.5 33.5t33.5 13.5t33.5 -13.5t13.5 -33.5q0 -18 -35 -84l-149 -275h-37z" />
<glyph unicode="&#x201e;" horiz-adv-x="653" d="M-57 -328l163 318q-36 6 -36 41q0 20 13.5 33.5t33.5 13.5t33.5 -13.5t13.5 -33.5q0 -18 -35 -84l-149 -275h-37zM231 -328l164 318q-37 6 -37 41q0 20 14 33.5t34 13.5t33.5 -13.5t13.5 -33.5q0 -18 -35 -84l-150 -275h-37z" />
<glyph unicode="&#x2022;" horiz-adv-x="624" d="M143 608q0 80 59.5 139.5t139.5 59.5q81 0 141 -59.5t60 -139.5t-59.5 -139t-141.5 -59q-80 0 -139.5 59.5t-59.5 138.5z" />
<glyph unicode="&#x2026;" horiz-adv-x="1001" d="M27 31q0 20 13.5 33.5t33.5 13.5t33.5 -13.5t13.5 -33.5t-13.5 -33.5t-33.5 -13.5t-33.5 13.5t-13.5 33.5zM385 31q0 20 13.5 33.5t33.5 13.5t33.5 -13.5t13.5 -33.5t-13.5 -33.5t-33.5 -13.5t-33.5 13.5t-13.5 33.5zM729 31q0 20 13.5 33.5t33.5 13.5t33.5 -13.5 t13.5 -33.5t-13.5 -33.5t-33.5 -13.5t-33.5 13.5t-13.5 33.5z" />
<glyph unicode="&#x202f;" horiz-adv-x="388" />
<glyph unicode="&#x2039;" horiz-adv-x="540" d="M92 516l301 295h53l-301 -299l197 -291h-51z" />
<glyph unicode="&#x203a;" horiz-adv-x="540" d="M115 221l301 299l-197 291h51l199 -295l-301 -295h-53z" />
<glyph unicode="&#x205f;" horiz-adv-x="486" />
<glyph unicode="&#x20ac;" horiz-adv-x="1851" d="M66 504l6 41h276q-3 69 10 151q7 49 29 115h-268l8 41h276q63 162 186.5 291.5t286.5 203.5t334 74q244 0 396.5 -130t167.5 -337h-50q-15 189 -156 306.5t-366 117.5q-159 0 -310.5 -68.5t-266.5 -188t-176 -269.5h759l-18 -41h-756q-22 -59 -31 -115q-13 -82 -10 -151 h682l-16 -41h-662q25 -215 180 -352.5t384 -137.5q225 0 407.5 117.5t265.5 306.5h49q-89 -208 -287 -337.5t-442 -129.5q-247 0 -413.5 150t-190.5 383h-284z" />
<glyph unicode="&#x2122;" horiz-adv-x="1374" d="M182 1358l4 33h512l-4 -33h-239l-99 -565h-37l99 565h-236zM705 793l104 598h35l184 -453l340 453h39l-104 -598h-37l94 528l-330 -438h-16l-180 444l-93 -534h-36z" />
<glyph unicode="&#x25fc;" horiz-adv-x="921" d="M0 0v922h922v-922h-922z" />
</font>
</defs>
</svg>
