<?xml version="1.0" standalone="no"?>
<!DOCTYPE svg PUBLIC "-//W3C//DTD SVG 1.1//EN" "http://www.w3.org/Graphics/SVG/1.1/DTD/svg11.dtd" >
<svg xmlns="http://www.w3.org/2000/svg">
<metadata></metadata>
<defs>
<font id="camptonsemibold_italic" horiz-adv-x="1253" >
<font-face units-per-em="2048" ascent="1638" descent="-410" />
<missing-glyph horiz-adv-x="530" />
<glyph unicode="&#xfb01;" horiz-adv-x="1476" d="M49 741l43 240h262l25 139q37 199 174.5 321t325.5 122q101 0 191.5 -20t232.5 -68l-82 -246q-123 40 -189.5 55.5t-142.5 15.5q-88 0 -149 -49.5t-76 -134.5l-25 -135h788l-174 -981h-284l131 741h-502l-131 -741h-285l131 741h-264z" />
<glyph unicode="&#xfb02;" horiz-adv-x="1460" d="M49 741l43 240h262l25 139q35 199 172 321t323 122q114 0 236 -35l-82 -244q-89 19 -139 19q-88 0 -149 -50t-76 -135l-25 -137h332l-43 -240h-330l-131 -741h-285l131 741h-264zM963 0l260 1454h282l-258 -1454h-284z" />
<glyph horiz-adv-x="2048" />
<glyph horiz-adv-x="2048" />
<glyph unicode="&#xd;" horiz-adv-x="2048" />
<glyph unicode=" "  horiz-adv-x="530" />
<glyph unicode="&#x09;" horiz-adv-x="530" />
<glyph unicode="&#xa0;" horiz-adv-x="530" />
<glyph unicode="!" horiz-adv-x="591" d="M66 141q0 67 48.5 113.5t116.5 46.5q69 0 118.5 -46.5t49.5 -113.5q0 -68 -49 -114.5t-119 -46.5q-68 0 -116.5 46.5t-48.5 114.5zM166 449l141 944h299l-190 -944h-250z" />
<glyph unicode="&#x22;" horiz-adv-x="702" d="M123 813l102 580h238l-103 -580h-237zM449 813l102 580h237l-102 -580h-237z" />
<glyph unicode="#" horiz-adv-x="1589" d="M18 326l45 252h271l98 200h-219l45 252h297l178 365h289l-178 -365h282l181 365h288l-180 -365h199l-45 -252h-277l-96 -200h223l-45 -252h-303l-158 -326h-288l157 326h-284l-158 -326h-289l158 326h-191zM623 578h284l97 200h-283z" />
<glyph unicode="$" horiz-adv-x="1374" d="M84 461h295q-2 -119 68.5 -174.5t222.5 -55.5q121 0 189.5 45.5t68.5 122.5q0 96 -152 125l-219 43q-174 36 -257.5 128t-76.5 249q10 192 140.5 311t326.5 154l39 227h248l-39 -219q67 -8 126 -26t114.5 -53.5t93.5 -84t57.5 -122t11.5 -164.5h-294q5 96 -50.5 150 t-177.5 54q-123 0 -197.5 -51t-74.5 -141q0 -56 42 -87.5t128 -49.5l166 -35q180 -40 272 -117.5t92 -212.5q0 -210 -155.5 -347t-407.5 -157l-37 -209h-248l39 224q-181 41 -276 163.5t-78 309.5z" />
<glyph unicode="%" horiz-adv-x="2234" d="M186 956q0 133 68.5 241.5t180 167t241.5 58.5q156 0 252 -93t96 -245q0 -133 -69 -242t-181 -168t-242 -59q-156 0 -251 93.5t-95 246.5zM395 987q0 -78 49 -126t125 -48q96 0 169 69t73 173q0 77 -48 124.5t-122 47.5q-98 0 -172 -68.5t-74 -171.5zM553 0l948 1393h195 l-946 -1393h-197zM1253 309q0 133 68.5 241.5t180 167t241.5 58.5q156 0 252 -93t96 -245q0 -133 -68.5 -242t-180.5 -168t-243 -59q-154 0 -250 93.5t-96 246.5zM1464 340q0 -79 48 -126.5t124 -47.5q97 0 170.5 69t73.5 173q0 77 -48 124.5t-124 47.5q-97 0 -170.5 -68.5 t-73.5 -171.5z" />
<glyph unicode="&#x26;" horiz-adv-x="1488" d="M39 342q0 144 83.5 257.5t225.5 178.5q-53 103 -53 191q0 125 71 230t191.5 164.5t261.5 59.5q190 0 287.5 -114t85.5 -305h-281q4 79 -31.5 124.5t-101.5 45.5q-77 0 -131.5 -51.5t-54.5 -131.5q0 -62 43 -127.5t147 -181.5l189 -215l213 266h295l-334 -418l-21 -24 l252 -291h-370l-91 100q-193 -131 -421 -131q-210 0 -332.5 102t-122.5 271zM319 391q0 -73 63 -123.5t159 -50.5q103 0 217 62l-230 260l-49 57q-74 -36 -117 -89.5t-43 -115.5z" />
<glyph unicode="'" horiz-adv-x="376" d="M123 813l102 580h238l-103 -580h-237z" />
<glyph unicode="(" horiz-adv-x="817" d="M125 633q43 255 190 471t398 407l176 -206q-86 -76 -139 -126.5t-115.5 -120t-100 -131.5t-70 -142.5t-48.5 -170.5q-36 -216 15 -376.5t187 -337.5l-221 -187q-178 187 -248 425t-24 495z" />
<glyph unicode=")" horiz-adv-x="815" d="M-29 -82q87 77 139.5 127t115 120.5t100 132t70 142t48.5 170.5q13 75 14.5 143t-8 129.5t-26.5 117t-45.5 111t-61 105.5t-75.5 107l219 188q180 -189 250 -425.5t24 -495.5q-44 -254 -191 -470t-397 -407z" />
<glyph unicode="*" horiz-adv-x="839" d="M156 1065l211 51l-140 137l113 113l137 -137l51 211l154 -43l-55 -217l219 51l39 -148l-209 -51l139 -139l-113 -113l-137 140l-53 -209l-150 39l54 217l-217 -54z" />
<glyph unicode="+" horiz-adv-x="1396" d="M215 553l43 252h363l61 346h260l-61 -346h362l-43 -252h-362l-62 -346h-260l62 346h-363z" />
<glyph unicode="," horiz-adv-x="454" d="M-43 -223l141 213q-98 43 -98 135q0 67 49 113.5t117 46.5q71 0 119.5 -46.5t48.5 -113.5q0 -84 -98 -205l-113 -143h-166z" />
<glyph unicode="-" horiz-adv-x="1132" d="M184 391l49 281h723l-51 -281h-721z" />
<glyph unicode="." horiz-adv-x="456" d="M-2 125q0 68 49 115t119 47q71 0 120.5 -46.5t49.5 -115.5q0 -70 -49.5 -117t-120.5 -47q-70 0 -119 47t-49 117z" />
<glyph unicode="/" horiz-adv-x="843" d="M-111 -328l834 1823h272l-833 -1823h-273z" />
<glyph unicode="0" horiz-adv-x="1470" d="M119 567q0 173 57 329t157 272.5t247 185.5t317 69q166 0 284.5 -76.5t176 -209.5t57.5 -310q0 -173 -57 -330t-157 -273.5t-246 -185.5t-316 -69q-249 0 -384.5 163.5t-135.5 434.5zM416 571q0 -148 68 -243t202 -95q133 0 233 83.5t149.5 216t49.5 290.5 q0 146 -68.5 241t-199.5 95q-82 0 -152.5 -31.5t-121.5 -87t-87.5 -130t-54.5 -160.5t-18 -179z" />
<glyph unicode="1" horiz-adv-x="1069" d="M-37 0l43 242h354l150 837l-356 -100l45 252l485 162h172l-203 -1151h332l-43 -242h-979z" />
<glyph unicode="2" horiz-adv-x="1155" d="M0 0l25 150l516 518q30 30 77 75.5t70 68t53 56t44 56t24 50t10 54.5q0 59 -37.5 99t-119.5 40q-94 0 -158 -53.5t-88 -148.5h-285q44 208 194.5 333t374.5 125q201 0 311.5 -103t110.5 -257q0 -116 -67.5 -208.5t-276.5 -299.5l-14 -14l-299 -299h530l-43 -242h-952z " />
<glyph unicode="3" horiz-adv-x="1157" d="M49 389h285q13 -172 201 -172q108 0 179.5 58.5t71.5 144.5q0 72 -57.5 113.5t-155.5 41.5l7 37l-7 -37h-110l39 232h110q103 0 170.5 60t67.5 151q0 69 -42 109t-114 40q-176 0 -225 -172h-283q47 192 191.5 306t359.5 114q179 0 284 -98.5t105 -257.5q0 -119 -51 -211 t-145 -150q137 -83 137 -245q0 -220 -149 -352t-410 -132q-210 0 -336.5 115t-122.5 305z" />
<glyph unicode="4" horiz-adv-x="1314" d="M37 268l33 183l553 942h295l-500 -875h375l69 397h283l-70 -397h180l-43 -250h-182l-47 -268h-283l48 268h-711z" />
<glyph unicode="5" horiz-adv-x="1222" d="M63 389h285q20 -172 213 -172q116 0 196.5 75t80.5 181q0 80 -59 129t-161 49h-407l131 742h877l-48 -260h-604l-41 -234h176q192 0 304 -105t112 -274q0 -152 -78.5 -278t-217 -199.5t-306.5 -73.5q-223 0 -341 113t-112 307z" />
<glyph unicode="6" horiz-adv-x="1269" d="M80 397q0 108 45 196t151 222l467 578h340l-348 -432q206 -3 330.5 -120.5t124.5 -297.5q0 -116 -48.5 -221.5t-132.5 -183t-205 -123.5t-259 -46q-211 0 -338 122t-127 306zM365 420q0 -88 62 -151.5t161 -63.5q127 0 219 88.5t92 200.5q0 90 -61 152.5t-162 62.5 q-100 0 -187 -54l-2 -2q-75 -85 -98.5 -130t-23.5 -103z" />
<glyph unicode="7" horiz-adv-x="1042" d="M51 0l713 1120h-621l47 273h986l-31 -174l-768 -1219h-326z" />
<glyph unicode="8" horiz-adv-x="1282" d="M55 336q0 134 75.5 238t211.5 165q-121 82 -121 234q0 128 76 231t208 161t292 58q195 0 312.5 -95.5t117.5 -248.5q0 -114 -57.5 -202.5t-161.5 -143.5q166 -96 166 -280q0 -210 -175.5 -347t-459.5 -137q-228 0 -356 100.5t-128 266.5zM379 387q0 -76 56 -127t147 -51 q113 0 194.5 69.5t81.5 163.5q0 74 -57.5 124t-149.5 50q-114 0 -193 -67t-79 -162zM504 981q0 -72 50 -119t134 -47q105 0 178.5 65t73.5 154q0 70 -50 117t-134 47q-105 0 -178.5 -63.5t-73.5 -153.5z" />
<glyph unicode="9" horiz-adv-x="1269" d="M162 850q0 116 48.5 221.5t132.5 183t205 123t259 45.5q212 0 338.5 -121.5t126.5 -306.5q0 -107 -45 -194.5t-152 -222.5l-467 -578h-340l348 432q-206 3 -330 120.5t-124 297.5zM453 899q0 -89 61 -151t162 -62q104 0 186 51l2 2q76 85 99.5 130.5t23.5 103.5 q0 89 -61 152t-162 63q-127 0 -219 -88.5t-92 -200.5z" />
<glyph unicode=":" horiz-adv-x="456" d="M-8 125q0 68 49 115t119 47t120 -47t50 -115q0 -70 -50 -117t-120 -47t-119 47t-49 117zM121 848q0 68 49 115t119 47t120 -47t50 -115t-50 -115t-120 -47t-119 47t-49 115z" />
<glyph unicode=";" horiz-adv-x="456" d="M-45 -223l143 213q-100 43 -100 135q0 67 49 113.5t117 46.5q71 0 119.5 -46.5t48.5 -113.5q0 -83 -96 -205l-115 -143h-166zM123 848q0 68 50 115t118 47q71 0 120.5 -46.5t49.5 -115.5t-49.5 -115.5t-120.5 -46.5q-68 0 -118 47t-50 115z" />
<glyph unicode="&#x3c;" horiz-adv-x="1093" d="M88 487l49 277l932 389l-49 -291l-600 -252l512 -241l-49 -271z" />
<glyph unicode="=" horiz-adv-x="1400" d="M176 328l43 252h987l-43 -252h-987zM248 741l43 252h987l-43 -252h-987z" />
<glyph unicode="&#x3e;" horiz-adv-x="1093" d="M74 98l49 291l600 252l-512 244l49 268l795 -389l-49 -277z" />
<glyph unicode="?" horiz-adv-x="1079" d="M137 995q48 192 194 306t351 114q197 0 310 -105.5t110 -283.5q-1 -186 -131.5 -306t-339.5 -142l-37 -140h-219l37 330h153q107 0 184.5 64.5t77.5 168.5q0 77 -45.5 121.5t-126.5 44.5q-83 0 -146.5 -47.5t-86.5 -124.5h-285zM260 141q0 67 49 113.5t117 46.5 q69 0 118.5 -46.5t49.5 -113.5q0 -68 -49 -114.5t-119 -46.5q-68 0 -117 46.5t-49 114.5z" />
<glyph unicode="@" horiz-adv-x="2013" d="M90 365q0 165 58 320.5t161.5 278.5t239 216t298.5 143.5t331 50.5q167 0 308 -53.5t238 -148.5t151 -229t54 -292q0 -94 -15.5 -178.5t-50.5 -162t-86.5 -133.5t-129 -89t-172.5 -33q-217 0 -275 135q-141 -131 -328 -131q-156 0 -252 103.5t-96 259.5q0 101 41 193.5 t109 159.5t160 107t190 40q137 0 229 -76l11 57h247l-84 -479q-28 -168 84 -168q75 0 124.5 52t70 131t20.5 182q0 249 -160 405t-421 156q-131 0 -258 -40t-232.5 -113.5t-186.5 -170.5t-126 -217.5t-45 -247.5q0 -252 168 -419t424 -167q251 0 465 148l82 -166 q-268 -174 -578 -174q-220 0 -395.5 96.5t-274 268t-98.5 385.5zM778 457q0 -83 51 -132t125 -49q52 0 112.5 27.5t111.5 89.5q3 48 12 94l18 107q-28 56 -76 84.5t-102 28.5q-94 0 -173 -70t-79 -180z" />
<glyph unicode="A" horiz-adv-x="1546" d="M-55 0l848 1401h278l350 -1401h-313l-61 268h-621l-158 -268h-323zM582 537h403l-115 491z" />
<glyph unicode="B" horiz-adv-x="1445" d="M53 0l246 1393h655q199 0 315.5 -84t116.5 -228q0 -121 -73 -224t-183 -138q101 -24 152 -98.5t51 -178.5q0 -196 -158 -319t-415 -123h-707zM393 256h391q125 0 194 54t69 130q0 61 -52.5 93t-144.5 32h-401zM492 817h339q124 0 194.5 53.5t70.5 139.5q0 61 -52 94 t-153 33h-342z" />
<glyph unicode="C" horiz-adv-x="1619" d="M135 696q36 207 163 373.5t311 259t386 92.5q267 0 425 -162q153 -157 153 -414v-16h-303q-9 149 -94 229.5t-234 80.5q-190 0 -331 -124.5t-175 -318.5q-9 -52 -9 -98q-1 -132 73 -222q100 -122 288 -122q129 0 253.5 85.5t181.5 223.5h303q-91 -268 -305.5 -430 t-481.5 -162q-151 0 -276 54t-207 149q-80 94 -114 230q-19 75 -19 156q0 66 12 136z" />
<glyph unicode="D" horiz-adv-x="1529" d="M53 0l246 1393h541q284 0 460.5 -166t176.5 -422q0 -167 -71.5 -317t-191 -256.5t-282 -169t-338.5 -62.5h-541zM395 272h246q136 0 258 66t196 179t74 243q0 155 -106 258.5t-270 103.5h-246z" />
<glyph unicode="E" horiz-adv-x="1255" d="M29 0l245 1393h1031l-48 -269h-735l-53 -303h651l-47 -268h-651l-51 -285h735l-47 -268h-1030z" />
<glyph unicode="F" horiz-adv-x="1232" d="M53 0l246 1393h1016l-47 -271h-721l-62 -342h629l-47 -268h-629l-90 -512h-295z" />
<glyph unicode="G" horiz-adv-x="1665" d="M125 678q39 216 168 386.5t313 263.5t389 93q117 0 219.5 -32.5t183 -95t130.5 -162.5t57 -226h-297q-13 75 -45.5 126t-80.5 76t-96 34.5t-108 9.5q-196 0 -345 -130t-187 -343q-7 -41 -7 -81q0 -68 22 -129q35 -96 124 -155t217 -59q142 0 252.5 69.5t177.5 190.5h-409 l45 262h731l-16 -88l-121 -688h-228l17 190q-196 -219 -500 -219q-208 0 -359.5 96.5t-215.5 258.5q-43 105 -43 224q0 62 12 128z" />
<glyph unicode="H" horiz-adv-x="1492" d="M53 0l246 1393h295l-102 -578h624l103 578h294l-245 -1393h-295l96 545h-625l-96 -545h-295z" />
<glyph unicode="I" horiz-adv-x="573" d="M53 0l246 1393h295l-246 -1393h-295z" />
<glyph unicode="J" horiz-adv-x="1251" d="M39 467h299q-3 -23 -3 -44q0 -73 38 -119q49 -60 162 -60q111 0 197.5 81.5t111.5 213.5l149 854h299l-151 -861q-25 -141 -84 -249t-143.5 -176.5t-189 -103t-224.5 -34.5q-148 0 -259.5 61.5t-166.5 175.5q-40 85 -40 188q0 35 5 73z" />
<glyph unicode="K" horiz-adv-x="1476" d="M53 0l246 1393h295l-113 -641l682 641h391l-649 -613l457 -780h-367l-331 553l-263 -246l-53 -307h-295z" />
<glyph unicode="L" horiz-adv-x="1224" d="M53 0l246 1393h295l-199 -1129h713l-49 -264h-1006z" />
<glyph unicode="M" horiz-adv-x="1740" d="M53 0l246 1393h211l371 -807l669 807h211l-245 -1393h-297l131 739l-441 -530h-174v2l-254 553l-131 -764h-297z" />
<glyph unicode="N" horiz-adv-x="1533" d="M53 0l246 1393h186l615 -897l160 897h294l-245 -1393h-230l-579 858l-152 -858h-295z" />
<glyph unicode="O" horiz-adv-x="1662" d="M127 590q0 165 73 319.5t191.5 266t276 178.5t319.5 67q183 0 325.5 -82t219 -222.5t76.5 -313.5q0 -165 -72.5 -319.5t-191 -266t-276 -179t-320.5 -67.5q-182 0 -324.5 82t-219.5 223t-77 314zM432 621q0 -157 92 -263t254 -106q132 0 253.5 69.5t197.5 191.5t76 263 q0 101 -39 182.5t-120.5 132t-193.5 50.5q-138 0 -258 -71t-191 -191t-71 -258z" />
<glyph unicode="P" horiz-adv-x="1327" d="M53 0l246 1393h522q230 0 368 -114t138 -312q0 -167 -89.5 -301t-250 -209.5t-362.5 -75.5h-209l-68 -381h-295zM463 649h235q143 0 237.5 80t94.5 195q0 94 -65.5 146t-180.5 52h-237z" />
<glyph unicode="Q" horiz-adv-x="1662" d="M127 590q0 165 73 319.5t191.5 266t276 178.5t319.5 67q183 0 325.5 -82t219 -222.5t76.5 -313.5q0 -196 -98.5 -371.5t-262.5 -292.5l226 -266l-218 -199l-280 330q-122 -33 -227 -33q-182 0 -324.5 82t-219.5 223t-77 314zM432 621q0 -102 38.5 -184t119 -133.5 t190.5 -51.5q132 0 253.5 69.5t197 191.5t74.5 263q0 157 -92.5 261t-260.5 104q-137 0 -257 -71t-191.5 -191t-71.5 -258z" />
<glyph unicode="R" horiz-adv-x="1413" d="M53 0l246 1393h555q231 0 372.5 -111t141.5 -301q0 -169 -102.5 -302.5t-272.5 -197.5l297 -481h-340l-264 432h-262l-76 -432h-295zM473 705h289q125 0 217 66.5t92 166.5q0 86 -66 135t-169 49h-289z" />
<glyph unicode="S" horiz-adv-x="1374" d="M84 461h295v-7q1 -114 69 -168q70 -56 222 -55q121 0 189.5 45.5t68.5 122.5q0 96 -152 125l-219 43q-173 36 -257 128q-77 85 -78 225q0 12 1 24q6 119 61 212.5t143 150.5t194.5 86.5t222.5 29.5q75 0 144.5 -12.5t139.5 -45t119 -82t76 -131.5q20 -61 20 -134 q0 -25 -2 -51h-294v16q-1 85 -51 134q-56 54 -177 54q-123 0 -197.5 -51t-74.5 -141q0 -56 42 -87.5t128 -49.5l166 -35q180 -40 272 -117.5t92 -212.5q0 -149 -82 -264.5t-227.5 -178.5t-329.5 -63q-256 1 -400 131q-126 114 -127 302q0 28 3 57z" />
<glyph unicode="T" horiz-adv-x="1333" d="M164 1122l47 271h1227l-47 -271h-465l-199 -1122h-297l199 1122h-465z" />
<glyph unicode="U" horiz-adv-x="1495" d="M143 633l133 760h297l-135 -762q-9 -55 -9 -102q1 -107 47 -179q68 -104 229 -104q152 0 262 105.5t139 279.5l135 762h295l-133 -760q-59 -329 -247 -496.5t-501 -167.5q-186 0 -315.5 86t-180.5 237q-30 90 -30 193q0 71 14 148z" />
<glyph unicode="V" horiz-adv-x="1595" d="M190 1393h314l254 -994l616 994h338l-868 -1401h-279z" />
<glyph unicode="W" horiz-adv-x="2209" d="M211 1393h311l123 -908l492 908h247l154 -924l451 924h323l-704 -1401h-291l-143 866l-465 -866h-289z" />
<glyph unicode="X" horiz-adv-x="1382" d="M-68 0l584 705l-334 688h361l215 -451l377 451h378l-589 -707l354 -686h-342l-250 465l-393 -465h-361z" />
<glyph unicode="Y" horiz-adv-x="1423" d="M168 1393h326l249 -613l465 613h365l-719 -944l-78 -449h-299l78 451z" />
<glyph unicode="Z" horiz-adv-x="1337" d="M-12 0l24 139l893 987h-686l45 267h1133l-25 -140l-858 -987h696l-47 -266h-1175z" />
<glyph unicode="[" horiz-adv-x="804" d="M2 -291l315 1786h584l-47 -270h-299l-221 -1243h301l-47 -273h-586z" />
<glyph unicode="\" horiz-adv-x="843" d="M29 1495h274l512 -1823h-272z" />
<glyph unicode="]" horiz-adv-x="800" d="M-59 -291l47 273h301l219 1243h-299l47 270h584l-314 -1786h-585z" />
<glyph unicode="^" horiz-adv-x="868" d="M100 899l361 494h244l186 -494h-258l-86 283l-191 -283h-256z" />
<glyph unicode="_" horiz-adv-x="1286" d="M-102 -432l43 248h1163l-43 -248h-1163z" />
<glyph unicode="`" horiz-adv-x="1228" d="M365 1452h311l151 -315h-258z" />
<glyph unicode="a" d="M72 412q0 119 49.5 229t130.5 188.5t188.5 125t218.5 46.5q160 0 265 -75l10 55h285l-175 -981h-282l10 57q-132 -77 -293 -77q-183 0 -295 118.5t-112 313.5zM358 449q0 -103 58 -165.5t153 -62.5q144 0 252 113l53 313q-63 115 -210 115q-123 0 -214.5 -95t-91.5 -218z " />
<glyph unicode="b" d="M35 0l256 1454h284l-94 -530q135 77 293 77q177 0 291.5 -123.5t114.5 -308.5q0 -119 -50 -229t-131 -188.5t-188.5 -125t-218.5 -46.5q-161 0 -262 75l-11 -55h-284zM377 332q67 -113 211 -113q125 0 215 94.5t90 218.5q0 96 -57 162t-152 66q-147 0 -250 -111z" />
<glyph unicode="c" horiz-adv-x="1169" d="M74 489q40 220 216 366t400 146q196 1 314 -113q109 -105 109 -266q0 -14 -1 -28h-285q-2 71 -50.5 113.5t-129.5 42.5q-111 0 -191.5 -74.5t-101.5 -186.5q-5 -31 -5 -59q-1 -76 39 -128q54 -70 167 -71q81 0 144.5 41.5t91.5 112.5h284q-54 -181 -212.5 -294.5 t-352.5 -113.5q-236 0 -356 141q-90 106 -90 262q0 51 10 109z" />
<glyph unicode="d" horiz-adv-x="1255" d="M70 412q0 118 49.5 228t130.5 188.5t188.5 125.5t218.5 47q160 0 267 -77l94 530h282l-256 -1454h-284l10 55q-129 -75 -291 -75q-179 0 -294 123t-115 309zM356 449q0 -97 58.5 -163.5t154.5 -66.5q143 0 250 115l55 311q-66 115 -212 115q-123 0 -214.5 -94t-91.5 -217 z" />
<glyph unicode="e" horiz-adv-x="1159" d="M76 489q38 221 209.5 366.5t394.5 145.5q214 0 326 -135q88 -105 88 -262q0 -45 -7 -94q-11 -71 -28 -123h-709q11 -77 64.5 -123.5t146.5 -46.5q118 0 168 70h307q-65 -143 -202 -226.5t-316 -83.5q-154 0 -264 68q-110 69 -156 185q-30 77 -30 164q0 46 8 95zM381 586 h446q1 12 1 23q0 77 -42 118q-48 47 -139 47q-96 0 -164 -51.5t-102 -136.5z" />
<glyph unicode="f" horiz-adv-x="927" d="M49 741l43 240h262l25 139q37 199 173.5 321t324.5 122q114 0 233 -35l-80 -244q-89 19 -141 19q-88 0 -149 -50t-76 -135l-25 -137h373l-43 -240h-371l-131 -741h-285l131 741h-264z" />
<glyph unicode="g" horiz-adv-x="1255" d="M10 -55h285v-8q0 -72 49 -116q53 -46 152 -46t172.5 61.5t93.5 173.5l18 107q-134 -78 -291 -78q-178 0 -294.5 122t-116.5 294q0 116 49 221.5t129.5 180.5t187 119t218.5 44q158 0 266 -78l6 39h285l-172 -969q-39 -227 -202.5 -359t-389.5 -132q-213 0 -337 118 q-110 105 -110 266q0 20 2 40zM365 489q0 -82 58.5 -146t154.5 -64q148 0 251 116l48 267q-62 116 -211 116q-125 0 -213 -85t-88 -204z" />
<glyph unicode="h" horiz-adv-x="1228" d="M51 0l256 1454h285l-96 -543q147 101 299 101q194 0 288 -129q67 -92 67 -227q0 -55 -11 -117l-95 -539h-282l90 514q6 36 6 67q0 68 -30 111q-44 62 -144 62q-111 0 -238 -121l-110 -633h-285z" />
<glyph unicode="i" horiz-adv-x="589" d="M72 0l172 981h284l-172 -981h-284zM266 1327q0 72 50 120t122 48q71 0 121.5 -48.5t50.5 -119.5q0 -70 -50.5 -117t-121.5 -47q-72 0 -122 47t-50 117z" />
<glyph unicode="j" horiz-adv-x="540" d="M-180 -395l18 243q115 15 162.5 53t65.5 134l165 946h285l-160 -909q-21 -116 -56 -197.5t-96.5 -143.5t-156 -93t-227.5 -33zM266 1327q0 72 50 120t122 48q71 0 121.5 -48.5t50.5 -119.5q0 -70 -50.5 -117t-121.5 -47q-72 0 -122 47t-50 117z" />
<glyph unicode="k" horiz-adv-x="1196" d="M23 0l258 1454h284l-157 -881l452 408h354l-454 -406l323 -575h-358l-195 369l-190 -170l-35 -199h-282z" />
<glyph unicode="l" horiz-adv-x="532" d="M37 0l258 1454h283l-259 -1454h-282z" />
<glyph unicode="m" horiz-adv-x="1859" d="M35 0l172 981h285l-11 -57q58 45 117 66.5t141 21.5q192 0 287 -140q93 74 181 107t202 33q183 0 281 -130q72 -96 72 -235q0 -51 -9 -108l-94 -539h-285l90 514q6 36 6 67q0 68 -30 111q-44 62 -144 62q-104 0 -204 -111q0 -36 -11 -104l-92 -539h-284l90 514q6 36 6 67 q0 68 -30 111q-44 62 -144 62q-95 0 -195 -109l-113 -645h-284z" />
<glyph unicode="n" horiz-adv-x="1228" d="M35 0l172 981h285l-13 -70q147 101 299 101q194 0 288 -129q67 -92 67 -228q0 -55 -11 -116l-94 -539h-285l91 514q7 38 7 71q1 66 -29 107q-44 62 -146 62q-112 0 -236 -121l-111 -633h-284z" />
<glyph unicode="o" horiz-adv-x="1204" d="M70 408q0 165 85 302t228 214t311 77q198 0 319.5 -120.5t121.5 -311.5q0 -165 -85 -303.5t-228 -217.5t-310 -79q-199 0 -320.5 123t-121.5 316zM352 442q0 -95 55 -157t150 -62q124 0 209.5 91.5t85.5 217.5q0 93 -55 154.5t-148 61.5q-126 0 -211.5 -90t-85.5 -216z " />
<glyph unicode="p" d="M-45 -473l258 1454h285l-11 -55q129 75 291 75q178 0 293 -123t115 -309q0 -159 -80 -295t-215.5 -215t-292.5 -79t-264 77l-94 -530h-285zM383 334q66 -113 211 -113q123 0 214 94t91 217q0 97 -58 163.5t-153 66.5q-142 0 -250 -113z" />
<glyph unicode="q" horiz-adv-x="1245" d="M61 412q0 119 50 229t131 188.5t188.5 125t218.5 46.5q161 0 262 -75l11 55h284l-256 -1454h-284l94 530q-135 -77 -293 -77q-178 0 -292 123.5t-114 308.5zM348 449q0 -96 57 -162t152 -66q147 0 250 111l57 317q-67 113 -211 113q-124 0 -214.5 -95t-90.5 -218z" />
<glyph unicode="r" horiz-adv-x="811" d="M35 0l172 981h285l-21 -113q160 129 369 129l-47 -270q-226 -9 -371 -139l-103 -588h-284z" />
<glyph unicode="s" horiz-adv-x="1038" d="M37 340l260 -2q0 -4 -1 -9q0 -68 45 -101q47 -35 136 -35q80 0 131 26t51 68q0 24 -23 44t-65 27l-200 35q-108 21 -176 80t-68 164q0 169 136.5 270t350.5 101q46 0 89 -6t90.5 -19t85 -38.5t67.5 -61t43 -89.5q8 -35 8 -75q0 -22 -2 -45l-262 -2q1 8 1 16q0 50 -38 76 q-44 30 -121 31q-74 0 -116.5 -28t-42.5 -67q0 -28 23.5 -50t76.5 -32l174 -28q252 -50 252 -242q0 -120 -69.5 -207.5t-183 -129.5t-255.5 -42q-70 0 -130.5 11.5t-114 39t-89.5 69t-54 105.5q-12 44 -12 97q0 24 3 49z" />
<glyph unicode="t" horiz-adv-x="931" d="M63 741l41 240h205l64 350h282l-61 -350h352l-41 -240h-354l-62 -348q-3 -21 -4 -40q1 -48 23 -79q30 -43 106 -43q73 0 191 29l-6 -246q-151 -45 -260 -45q-177 0 -271 120q-71 90 -71 216q0 41 8 86l63 350h-205z" />
<glyph unicode="u" horiz-adv-x="1243" d="M104 440l95 541h284l-90 -514q-7 -38 -7 -71q0 -66 30 -107q44 -62 145 -62q112 0 236 121l112 633h285l-174 -981h-285l13 70q-147 -101 -297 -101q-194 1 -289 129q-68 92 -68 229q0 53 10 113z" />
<glyph unicode="v" horiz-adv-x="1193" d="M115 981h301l159 -619l371 619h307l-591 -981h-279z" />
<glyph unicode="w" horiz-adv-x="1634" d="M115 981h305l84 -547l282 547h234l90 -549l276 549h306l-504 -981h-279l-84 541l-274 -541h-250z" />
<glyph unicode="x" horiz-adv-x="1148" d="M-59 0l444 494l-270 489h340l153 -283l250 283h348l-444 -491l272 -492h-332l-159 301l-262 -301h-340z" />
<glyph unicode="y" horiz-adv-x="1300" d="M127 983h303l195 -655l395 655h313l-876 -1454h-314l279 463z" />
<glyph unicode="z" horiz-adv-x="1026" d="M-23 0l25 133l598 612h-479l41 236h887l-27 -152l-586 -593h482l-44 -236h-897z" />
<glyph unicode="{" horiz-adv-x="731" d="M51 487l43 244q36 0 54 0.5t41.5 4t34.5 10.5t24 20t19.5 32.5t11.5 47.5l51 291q31 176 171.5 281.5t342.5 105.5l-47 -275q-73 0 -123.5 -31.5t-61.5 -84.5l-49 -289q-19 -103 -58 -154.5t-138 -79.5q89 -29 110 -80t2 -153l-51 -289q-8 -53 31 -86t112 -33l-49 -272 q-201 0 -305.5 105.5t-73.5 279.5l54 291q3 19 3.5 33.5t-0.5 26t-6.5 20t-10.5 14.5t-17 9.5t-20 6t-26.5 3.5t-31 1h-37.5z" />
<glyph unicode="|" horiz-adv-x="538" d="M-4 -328l321 1823h261l-322 -1823h-260z" />
<glyph unicode="}" horiz-adv-x="729" d="M-72 -303l47 272q73 0 123.5 33t61.5 86l51 289q16 102 56 153.5t139 79.5q-89 29 -110 80.5t-3 153.5l51 289q8 53 -31 84.5t-112 31.5l49 275q202 0 306 -105.5t73 -281.5l-54 -289q-3 -21 -4 -37t3 -28.5t8 -20.5t15 -13.5t20 -8.5t28.5 -4.5t34 -2t41.5 -0.5 l-41 -244q-37 0 -55 -0.5t-42 -4t-34.5 -10t-23.5 -19.5t-19.5 -32.5t-11.5 -47.5l-52 -293q-31 -174 -172 -279.5t-342 -105.5z" />
<glyph unicode="~" horiz-adv-x="917" d="M74 563q0 87 27 153.5t70.5 102t97 51.5t107.5 9t101 -33l105 -62q36 -24 57 -15.5t29 27t8 44.5h248q0 -88 -27.5 -154.5t-71.5 -102.5t-97.5 -52t-108 -8.5t-101.5 34.5l-102 61q-36 24 -58 16t-30.5 -26.5t-8.5 -44.5h-245z" />
<glyph unicode="&#xa1;" horiz-adv-x="591" d="M-27 -408l191 945h250l-142 -945h-299zM180 842q0 68 49 115t119 47q68 0 117 -47t49 -115q0 -67 -49 -113.5t-117 -46.5q-69 0 -118.5 46.5t-49.5 113.5z" />
<glyph unicode="&#xa2;" horiz-adv-x="1169" d="M74 489q32 183 163 318t312 178l43 246h250l-45 -240q151 -30 236.5 -136.5t78.5 -260.5h-285q-2 71 -51 113.5t-131 42.5q-110 0 -190 -74.5t-101 -186.5q-22 -117 33 -187.5t168 -70.5q80 0 144 42t92 112h284q-47 -153 -170 -259.5t-284 -137.5l-37 -205h-248l37 209 q-171 38 -252 170.5t-47 326.5z" />
<glyph unicode="&#xa3;" d="M-37 0l47 246h117l55 313h-119l43 240h119l23 127q40 224 204.5 359.5t395.5 135.5q213 0 329.5 -116t104.5 -312h-287q-5 84 -54 131t-136 47q-105 0 -180 -66.5t-95 -178.5l-22 -127h391l-41 -240h-391l-55 -313h712l-45 -246h-1116z" />
<glyph unicode="&#xa5;" horiz-adv-x="1423" d="M147 135l35 199h353l16 92h-352l34 199h252l-317 768h326l249 -615l465 615h367l-586 -768h262l-34 -199h-367l-16 -92h366l-35 -199h-366l-23 -135h-299l23 135h-353z" />
<glyph unicode="&#xa6;" horiz-adv-x="540" d="M-4 -328l143 807h260l-143 -807h-260zM176 688l141 807h261l-142 -807h-260z" />
<glyph unicode="&#xa7;" horiz-adv-x="1124" d="M16 68h306q-11 -146 124 -146q63 0 105.5 34.5t42.5 90.5q0 69 -68 105l-223 108q-127 63 -181 136.5t-54 162.5q0 211 194 311q-29 69 -29 138q0 123 67 216.5t176 141t241 47.5q194 0 298 -107t93 -286h-305q5 65 -24.5 105t-100.5 40q-62 0 -105 -35.5t-43 -91.5 q0 -65 70 -102l221 -113q127 -64 182.5 -136.5t55.5 -160.5q0 -108 -52.5 -186.5t-144.5 -124.5q29 -62 29 -135q0 -125 -66.5 -219t-175 -141.5t-241.5 -47.5q-194 0 -298.5 107.5t-93.5 288.5zM352 606q0 -67 115 -121l223 -112q37 12 59.5 41t22.5 63q0 69 -115 123 l-223 113q-36 -12 -59 -42.5t-23 -64.5z" />
<glyph unicode="&#xa8;" horiz-adv-x="1228" d="M289 1290q0 66 48 111t116 45q69 0 116 -45t47 -111q0 -67 -47 -112t-116 -45q-68 0 -116 45t-48 112zM719 1290q0 66 47.5 111t116.5 45q68 0 114.5 -45t46.5 -111q0 -67 -46.5 -112t-114.5 -45q-69 0 -116.5 45t-47.5 112z" />
<glyph unicode="&#xa9;" horiz-adv-x="1697" d="M125 696q0 153 59.5 288.5t160.5 231.5t238 151.5t287 55.5q201 0 372 -94t272.5 -262t101.5 -371t-101.5 -371t-272.5 -262t-372 -94q-150 0 -287 55.5t-238 151.5t-160.5 231.5t-59.5 288.5zM311 696q0 -151 76.5 -278t204.5 -199t276 -72t276.5 72t205.5 199t77 278 t-77 278t-205.5 199t-276.5 72t-276 -72t-204.5 -199t-76.5 -278zM524 692q0 147 99.5 242.5t250.5 95.5q130 0 223 -74t113 -196h-209q-15 36 -50 58t-79 22q-64 0 -105.5 -43t-41.5 -105q0 -61 41.5 -103t105.5 -42q44 0 79 21.5t50 58.5h209q-20 -122 -113 -196.5 t-223 -74.5q-151 0 -250.5 95t-99.5 241z" />
<glyph unicode="&#xaa;" horiz-adv-x="727" d="M106 895q0 108 79 165.5t212 57.5h185q24 121 -88 121q-46 0 -80 -21t-43 -61h-193q13 63 49 112t84.5 77.5t102 42.5t108.5 14q136 0 206 -77t46 -208l-69 -391h-191l4 25q-87 -37 -170 -37q-113 0 -177.5 48t-64.5 132zM297 932q0 -26 22 -45t70 -19q81 0 158 47l12 68 h-192q-30 0 -50 -14t-20 -37z" />
<glyph unicode="&#xab;" horiz-adv-x="954" d="M43 516l248 320h268l-248 -330l133 -309h-266zM440 516l248 320h266l-247 -330l135 -309h-269z" />
<glyph unicode="&#xad;" horiz-adv-x="1132" d="M184 391l49 281h723l-51 -281h-721z" />
<glyph unicode="&#xae;" horiz-adv-x="1161" d="M121 907q0 142 71 260t190.5 184t260.5 66t260.5 -66t190.5 -184t71 -260t-71 -259.5t-190.5 -183t-260.5 -65.5t-260.5 65.5t-190.5 183t-71 259.5zM270 907q0 -152 109.5 -258t261.5 -106q151 0 262 106t111 258q0 154 -110.5 260.5t-262.5 106.5q-153 0 -262 -106 t-109 -261zM477 713v422h187q78 0 127 -43t49 -113q0 -85 -76 -125l92 -141h-135l-74 118h-59v-118h-111zM588 928h74q63 0 63 53q0 24 -16.5 37.5t-46.5 13.5h-74v-104z" />
<glyph unicode="&#xaf;" horiz-adv-x="1228" d="M356 1174l39 204h576l-37 -204h-578z" />
<glyph unicode="&#xb0;" horiz-adv-x="952" d="M217 1073q0 152 102.5 251t258.5 99t258 -99t102 -251q0 -153 -102 -252.5t-258 -99.5t-258.5 99.5t-102.5 252.5zM426 1073q0 -62 44.5 -105.5t107.5 -43.5q62 0 106.5 44t44.5 105t-44.5 104.5t-106.5 43.5q-63 0 -107.5 -43.5t-44.5 -104.5z" />
<glyph unicode="&#xb1;" horiz-adv-x="1396" d="M129 68l43 249h985l-45 -249h-983zM233 662l43 249h365l45 267h260l-45 -267h361l-45 -249h-361l-45 -265h-260l45 265h-363z" />
<glyph unicode="&#xb2;" horiz-adv-x="755" d="M82 578l18 108l357 322q79 71 105 104t26 68q0 32 -20 49.5t-56 17.5q-52 0 -85 -27t-42 -77h-207q25 132 120 211.5t241 79.5q129 0 198.5 -61.5t69.5 -153.5q0 -70 -38 -133.5t-155 -174.5l-168 -159h289l-30 -174h-623z" />
<glyph unicode="&#xb3;" horiz-adv-x="782" d="M117 831h205q7 -41 31.5 -63.5t78.5 -22.5q56 0 93.5 28.5t37.5 70.5q0 71 -125 71l4 27l-4 -27h-65l28 166h66q56 0 92.5 30t36.5 73q0 32 -21 51.5t-61 19.5q-45 0 -74 -24.5t-39 -61.5h-204q31 124 124 195.5t224 71.5q119 0 185.5 -61.5t66.5 -160.5 q0 -137 -111 -208q78 -50 78 -144q0 -124 -96.5 -210.5t-251.5 -86.5q-140 0 -220.5 72t-78.5 194z" />
<glyph unicode="&#xb4;" horiz-adv-x="1228" d="M494 1137l206 315h310l-258 -315h-258z" />
<glyph unicode="&#xb6;" horiz-adv-x="1585" d="M41 922q0 209 151 340t377 131h891v-1721h-284v1477h-166v-1477h-283v748h-158q-148 0 -268 62t-190 177.5t-70 262.5zM317 920q0 -109 69 -176.5t183 -67.5h158v473h-158q-114 0 -183 -63t-69 -166z" />
<glyph unicode="&#xb7;" horiz-adv-x="456" d="M66 557q0 68 49.5 115t117.5 47q71 0 120.5 -46.5t49.5 -115.5t-49.5 -115.5t-120.5 -46.5q-68 0 -117.5 47t-49.5 115z" />
<glyph unicode="&#xb8;" horiz-adv-x="1228" d="M322 -440l153 338h279l-189 -338h-243z" />
<glyph unicode="&#xb9;" horiz-adv-x="696" d="M57 586l31 174h217l78 442l-217 -59l31 182l309 98h115l-117 -663h211l-29 -174h-629z" />
<glyph unicode="&#xba;" horiz-adv-x="794" d="M143 1010q0 109 57 201t153 144t206 52q132 0 213.5 -81t81.5 -208q0 -169 -123 -286t-293 -117q-132 0 -213.5 82.5t-81.5 212.5zM338 1034q0 -63 35.5 -103t95.5 -40q80 0 134 60t54 141q0 60 -34.5 99.5t-94.5 39.5q-82 0 -136 -58t-54 -139z" />
<glyph unicode="&#xbb;" horiz-adv-x="954" d="M8 197l248 329l-135 310h268l133 -320l-248 -319h-266zM403 197l248 329l-133 310h266l136 -320l-248 -319h-269z" />
<glyph unicode="&#xbc;" horiz-adv-x="1912" d="M57 555l31 174h217l78 442l-217 -59l31 182l309 99h115l-117 -664h211l-29 -174h-629zM442 0l947 1393h196l-946 -1393h-197zM1055 152l20 133l336 553h213l-295 -504h193l39 217h206l-38 -217h102l-29 -182h-106l-27 -152h-205l27 152h-436z" />
<glyph unicode="&#xbd;" horiz-adv-x="1882" d="M57 555l31 174h217l78 442l-217 -59l31 182l309 99h115l-117 -664h211l-29 -174h-629zM416 0l948 1393h195l-947 -1393h-196zM1110 0l18 109l355 321q81 73 107 105t26 67q0 32 -20.5 50t-57.5 18q-105 0 -127 -105h-205q25 132 120 211.5t241 79.5q128 0 198 -62 t70 -153q0 -69 -38.5 -132t-154.5 -175l-169 -160h290l-32 -174h-621z" />
<glyph unicode="&#xbe;" horiz-adv-x="1867" d="M117 809h205q7 -41 31.5 -63.5t78.5 -22.5q57 0 94 28t37 70q0 72 -125 72l4 27l-4 -27h-65l28 166h66q56 0 92.5 29.5t36.5 72.5q0 32 -21 52t-61 20q-45 0 -74 -24.5t-39 -61.5h-204q31 123 123.5 194.5t224.5 71.5q119 0 185.5 -61t66.5 -160q0 -138 -111 -209 q78 -50 78 -143q0 -124 -96.5 -210.5t-251.5 -86.5q-140 0 -220.5 72t-78.5 194zM399 0l947 1393h196l-948 -1393h-195zM1010 152l20 133l336 553h213l-295 -504h193l39 217h206l-39 -217h103l-29 -182h-106l-27 -152h-205l27 152h-436z" />
<glyph unicode="&#xbf;" horiz-adv-x="1079" d="M-10 82q3 186 133.5 306t339.5 142l35 140h221l-39 -328h-152q-107 0 -184.5 -66t-77.5 -170q0 -77 45.5 -121t124.5 -44q84 0 148.5 47.5t87.5 124.5h282q-48 -192 -192.5 -306t-349.5 -114q-197 0 -311 105.5t-111 283.5zM500 967q0 68 49 114.5t119 46.5 q68 0 117 -46.5t49 -114.5q0 -67 -49 -113.5t-117 -46.5q-69 0 -118.5 46.5t-49.5 113.5z" />
<glyph unicode="&#xc0;" horiz-adv-x="1546" d="M-55 0l848 1401h278l352 -1401h-315l-61 268h-619l-158 -268h-325zM584 537h401l-115 489zM621 1858h311l151 -316h-258z" />
<glyph unicode="&#xc1;" horiz-adv-x="1546" d="M-55 0l848 1401h278l352 -1401h-315l-61 268h-619l-158 -268h-325zM584 537h401l-115 489zM829 1542l207 316h312l-261 -316h-258z" />
<glyph unicode="&#xc2;" horiz-adv-x="1546" d="M-55 0l848 1401h278l352 -1401h-315l-61 268h-619l-158 -268h-325zM584 537h401l-115 489zM594 1544l297 322h266l184 -322h-245l-95 164l-141 -164h-266z" />
<glyph unicode="&#xc3;" horiz-adv-x="1546" d="M-55 0l848 1401h278l352 -1401h-315l-61 268h-619l-158 -268h-325zM584 537h401l-115 489zM621 1593q-1 90 34.5 151t90.5 83.5t116.5 21t116.5 -25.5l59 -27q62 -24 89.5 -7.5t27.5 58.5h193q1 -73 -21.5 -127t-60.5 -82.5t-86 -40t-97 -5t-94 27.5l-61 27 q-57 24 -87 6.5t-30 -60.5h-190z" />
<glyph unicode="&#xc4;" horiz-adv-x="1546" d="M-55 0l848 1401h278l352 -1401h-315l-61 268h-619l-158 -268h-325zM584 537h401l-115 489zM602 1696q0 65 48 110t116 45q69 0 116.5 -44.5t47.5 -110.5q0 -67 -47.5 -112.5t-116.5 -45.5q-68 0 -116 45.5t-48 112.5zM1032 1696q0 66 47.5 110.5t116.5 44.5q68 0 116 -45 t48 -110q0 -67 -48 -112.5t-116 -45.5q-69 0 -116.5 45.5t-47.5 112.5z" />
<glyph unicode="&#xc5;" horiz-adv-x="1546" d="M-55 0l848 1401h278l352 -1401h-315l-61 268h-619l-158 -268h-325zM584 537h401l-115 489zM737 1776q0 101 66.5 162t175.5 61t175.5 -61t66.5 -162q0 -102 -67 -165t-175 -63t-175 63t-67 165zM891 1776q0 -40 24 -64t64 -24t65 24t25 64q0 38 -25 62t-65 24t-64 -24 t-24 -62z" />
<glyph unicode="&#xc6;" horiz-adv-x="2324" d="M-55 0l1315 1393h1114l-47 -269h-736l-53 -303h651l-47 -268h-651l-51 -285h735l-47 -268h-1030l47 268h-559l-242 -268h-399zM827 537h365l88 501z" />
<glyph unicode="&#xc7;" horiz-adv-x="1619" d="M135 696q36 207 162.5 373.5t310 259t385.5 92.5q269 0 427 -162t153 -430h-303q-9 149 -94 229.5t-234 80.5q-191 0 -332.5 -125t-175.5 -318q-33 -199 66 -320.5t286 -121.5q129 0 254.5 85.5t182.5 223.5h303q-91 -268 -305.5 -430t-483.5 -162q-150 0 -274.5 54 t-206 148.5t-115 230.5t-6.5 292zM406 -440l153 338h279l-189 -338h-243z" />
<glyph unicode="&#xc8;" horiz-adv-x="1255" d="M29 0l245 1393h1033l-47 -269h-738l-53 -303h651l-47 -268h-651l-51 -285h737l-47 -268h-1032zM465 1858h311l152 -316h-258z" />
<glyph unicode="&#xc9;" horiz-adv-x="1255" d="M29 0l245 1393h1033l-47 -269h-738l-53 -303h651l-47 -268h-651l-51 -285h737l-47 -268h-1032zM674 1542l207 316h311l-260 -316h-258z" />
<glyph unicode="&#xca;" horiz-adv-x="1255" d="M29 0l245 1393h1033l-47 -269h-738l-53 -303h651l-47 -268h-651l-51 -285h737l-47 -268h-1032zM436 1544l297 322h266l185 -322h-246l-94 164l-142 -164h-266z" />
<glyph unicode="&#xcb;" horiz-adv-x="1255" d="M29 0l245 1393h1033l-47 -269h-738l-53 -303h651l-47 -268h-651l-51 -285h737l-47 -268h-1032zM444 1696q0 65 48 110t116 45q69 0 116.5 -44.5t47.5 -110.5q0 -67 -47.5 -112.5t-116.5 -45.5q-68 0 -116 45.5t-48 112.5zM874 1696q0 66 47.5 110.5t116.5 44.5 q68 0 116 -45t48 -110q0 -67 -48 -112.5t-116 -45.5q-69 0 -116.5 45.5t-47.5 112.5z" />
<glyph unicode="&#xcc;" horiz-adv-x="573" d="M53 0l246 1393h295l-246 -1393h-295zM139 1858h312l151 -316h-258z" />
<glyph unicode="&#xcd;" horiz-adv-x="573" d="M53 0l246 1393h295l-246 -1393h-295zM348 1542l207 316h309l-258 -316h-258z" />
<glyph unicode="&#xce;" horiz-adv-x="573" d="M53 0l246 1393h295l-246 -1393h-295zM111 1544l297 322h266l184 -322h-246l-94 164l-141 -164h-266z" />
<glyph unicode="&#xcf;" horiz-adv-x="573" d="M53 0l246 1393h295l-246 -1393h-295zM119 1696q0 65 48 110t116 45q69 0 116 -44.5t47 -110.5q0 -67 -47 -112.5t-116 -45.5q-68 0 -116 45.5t-48 112.5zM549 1696q0 66 47.5 110.5t116.5 44.5q68 0 114.5 -44.5t46.5 -110.5q0 -67 -46.5 -112.5t-114.5 -45.5 q-69 0 -116.5 45.5t-47.5 112.5z" />
<glyph unicode="&#xd0;" horiz-adv-x="1529" d="M20 565l48 269h133l98 559h541q284 0 460.5 -166t176.5 -422q0 -167 -71.5 -317t-191 -256.5t-282 -169t-338.5 -62.5h-541l101 565h-134zM395 272h246q136 0 258.5 66t197 179t74.5 243q0 155 -106 258.5t-272 103.5h-246l-51 -288h235l-47 -269h-235z" />
<glyph unicode="&#xd1;" horiz-adv-x="1533" d="M53 0l246 1393h186l615 -897l160 897h294l-245 -1393h-230l-579 858l-152 -858h-295zM559 1593q-1 90 34.5 151t91 83.5t117 21t116.5 -25.5l59 -27q61 -24 89 -7.5t28 58.5h192q1 -73 -21.5 -127t-60.5 -82.5t-85.5 -40t-96.5 -5t-94 27.5l-62 27q-57 24 -86.5 6.5 t-29.5 -60.5h-191z" />
<glyph unicode="&#xd2;" horiz-adv-x="1662" d="M127 590q0 165 73 319.5t191.5 266t276 178.5t319.5 67q183 0 325.5 -82t219 -222.5t76.5 -313.5q0 -165 -72.5 -319.5t-191 -266t-276 -179t-320.5 -67.5q-182 0 -324.5 82t-219.5 223t-77 314zM432 621q0 -102 38.5 -184t119 -133.5t190.5 -51.5q132 0 253.5 69.5 t197 191.5t74.5 263q0 157 -92.5 261t-260.5 104q-137 0 -257 -71t-191.5 -191t-71.5 -258zM705 1858h311l151 -316h-258z" />
<glyph unicode="&#xd3;" horiz-adv-x="1662" d="M127 590q0 165 73 319.5t191.5 266t276 178.5t319.5 67q183 0 325.5 -82t219 -222.5t76.5 -313.5q0 -165 -72.5 -319.5t-191 -266t-276 -179t-320.5 -67.5q-182 0 -324.5 82t-219.5 223t-77 314zM432 621q0 -102 38.5 -184t119 -133.5t190.5 -51.5q132 0 253.5 69.5 t197 191.5t74.5 263q0 157 -92.5 261t-260.5 104q-137 0 -257 -71t-191.5 -191t-71.5 -258zM915 1542l207 316h312l-260 -316h-259z" />
<glyph unicode="&#xd4;" horiz-adv-x="1662" d="M127 590q0 165 73 319.5t191.5 266t276 178.5t319.5 67q183 0 325.5 -82t219 -222.5t76.5 -313.5q0 -165 -72.5 -319.5t-191 -266t-276 -179t-320.5 -67.5q-182 0 -324.5 82t-219.5 223t-77 314zM432 621q0 -102 38.5 -184t119 -133.5t190.5 -51.5q132 0 253.5 69.5 t197 191.5t74.5 263q0 157 -92.5 261t-260.5 104q-137 0 -257 -71t-191.5 -191t-71.5 -258zM678 1544l297 322h266l184 -322h-245l-95 164l-141 -164h-266z" />
<glyph unicode="&#xd5;" horiz-adv-x="1662" d="M127 590q0 165 73 319.5t191.5 266t276 178.5t319.5 67q183 0 325.5 -82t219 -222.5t76.5 -313.5q0 -165 -72.5 -319.5t-191 -266t-276 -179t-320.5 -67.5q-182 0 -324.5 82t-219.5 223t-77 314zM432 621q0 -102 38.5 -184t119 -133.5t190.5 -51.5q132 0 253.5 69.5 t197 191.5t74.5 263q0 157 -92.5 261t-260.5 104q-137 0 -257 -71t-191.5 -191t-71.5 -258zM705 1593q-1 90 34.5 151t90.5 83.5t116.5 21t116.5 -25.5l59 -27q62 -24 89.5 -7.5t27.5 58.5h193q1 -73 -21.5 -127t-60.5 -82.5t-86 -40t-97 -5t-94 27.5l-61 27q-57 24 -87 6.5 t-30 -60.5h-190z" />
<glyph unicode="&#xd6;" horiz-adv-x="1662" d="M127 590q0 165 73 319.5t191.5 266t276 178.5t319.5 67q183 0 325.5 -82t219 -222.5t76.5 -313.5q0 -165 -72.5 -319.5t-191 -266t-276 -179t-320.5 -67.5q-182 0 -324.5 82t-219.5 223t-77 314zM432 621q0 -102 38.5 -184t119 -133.5t190.5 -51.5q132 0 253.5 69.5 t197 191.5t74.5 263q0 157 -92.5 261t-260.5 104q-137 0 -257 -71t-191.5 -191t-71.5 -258zM686 1696q0 65 48 110t116 45q69 0 116.5 -44.5t47.5 -110.5q0 -67 -47.5 -112.5t-116.5 -45.5q-68 0 -116 45.5t-48 112.5zM1116 1696q0 66 47.5 110.5t116.5 44.5q68 0 116 -45 t48 -110q0 -67 -48 -112.5t-116 -45.5q-69 0 -116.5 45.5t-47.5 112.5z" />
<glyph unicode="&#xd7;" horiz-adv-x="1380" d="M182 371l342 291l-239 286l211 178l237 -286l338 286l148 -178l-338 -286l237 -291l-211 -178l-235 290l-342 -290z" />
<glyph unicode="&#xd8;" horiz-adv-x="1662" d="M94 117l129 127q-96 154 -96 346q0 165 73 319.5t191.5 266t276 178.5t319.5 67q192 0 340 -90l123 121l164 -164l-119 -117q113 -156 113 -368q0 -165 -72.5 -319.5t-191 -266t-276 -179t-320.5 -67.5q-209 0 -363 107l-127 -125zM432 621q0 -78 25 -148l647 639 q-69 29 -152 29q-137 0 -257 -71t-191.5 -191t-71.5 -258zM604 295q78 -43 176 -43q132 0 253.5 69.5t197 191.5t74.5 263q0 93 -35 174z" />
<glyph unicode="&#xd9;" horiz-adv-x="1495" d="M143 633l133 760h297l-135 -762q-32 -177 35.5 -281t228.5 -104q152 0 262.5 105.5t141.5 279.5l135 762h295l-133 -760q-60 -329 -247.5 -496.5t-500.5 -167.5q-186 0 -315.5 86t-180.5 237t-16 341zM573 1858h312l151 -316h-258z" />
<glyph unicode="&#xda;" horiz-adv-x="1495" d="M143 633l133 760h297l-135 -762q-32 -177 35.5 -281t228.5 -104q152 0 262.5 105.5t141.5 279.5l135 762h295l-133 -760q-60 -329 -247.5 -496.5t-500.5 -167.5q-186 0 -315.5 86t-180.5 237t-16 341zM782 1542l207 316h311l-260 -316h-258z" />
<glyph unicode="&#xdb;" horiz-adv-x="1495" d="M143 633l133 760h297l-135 -762q-32 -177 35.5 -281t228.5 -104q152 0 262.5 105.5t141.5 279.5l135 762h295l-133 -760q-60 -329 -247.5 -496.5t-500.5 -167.5q-186 0 -315.5 86t-180.5 237t-16 341zM547 1544l297 322h266l184 -322h-245l-95 164l-141 -164h-266z" />
<glyph unicode="&#xdc;" horiz-adv-x="1495" d="M143 633l133 760h297l-135 -762q-32 -177 35.5 -281t228.5 -104q152 0 262.5 105.5t141.5 279.5l135 762h295l-133 -760q-60 -329 -247.5 -496.5t-500.5 -167.5q-186 0 -315.5 86t-180.5 237t-16 341zM555 1696q0 65 48 110t116 45q69 0 116.5 -44.5t47.5 -110.5 q0 -67 -47.5 -112.5t-116.5 -45.5q-68 0 -116 45.5t-48 112.5zM985 1696q0 66 47.5 110.5t116.5 44.5q68 0 116 -45t48 -110q0 -67 -48 -112.5t-116 -45.5q-69 0 -116.5 45.5t-47.5 112.5z" />
<glyph unicode="&#xdd;" horiz-adv-x="1423" d="M168 1393h326l249 -615l465 615h367l-721 -944l-78 -449h-299l78 451zM721 1542l207 316h311l-260 -316h-258z" />
<glyph unicode="&#xde;" horiz-adv-x="1325" d="M51 0l246 1393h295l-33 -189h248q226 0 355.5 -113t129.5 -305q0 -173 -90 -308.5t-250 -210t-362 -74.5h-209l-35 -193h-295zM428 461h238q143 0 235 79.5t92 202.5q0 87 -65.5 139t-179.5 52h-238z" />
<glyph unicode="&#xdf;" horiz-adv-x="1368" d="M37 0l192 1092q35 202 183 326t352 124l-47 -276q-78 0 -134.5 -49.5t-70.5 -129.5l-18 -106h821l-29 -172l-336 -340q137 -31 214 -121t77 -223q0 -112 -46 -211.5t-126.5 -171t-195 -113t-244.5 -41.5q-177 0 -336 54l45 254q160 -58 315 -58q145 0 223 72.5t78 171.5 q0 70 -48.5 114t-133.5 44h-240l23 133l330 348h-436l-127 -721h-285z" />
<glyph unicode="&#xe0;" d="M72 412q0 119 49.5 229t130.5 188.5t188.5 125t218.5 46.5q160 0 265 -75l10 55h285l-172 -981h-285l10 59q-130 -79 -293 -79q-183 0 -295 118.5t-112 313.5zM358 449q0 -103 58 -165.5t153 -62.5q145 0 252 115l53 311q-66 115 -210 115q-123 0 -214.5 -95t-91.5 -218z M422 1415h311l152 -315h-258z" />
<glyph unicode="&#xe1;" d="M72 412q0 119 49.5 229t130.5 188.5t188.5 125t218.5 46.5q160 0 265 -75l10 55h285l-172 -981h-285l10 59q-130 -79 -293 -79q-183 0 -295 118.5t-112 313.5zM358 449q0 -103 58 -165.5t153 -62.5q145 0 252 115l53 311q-66 115 -210 115q-123 0 -214.5 -95t-91.5 -218z M629 1100l207 315h311l-260 -315h-258z" />
<glyph unicode="&#xe2;" d="M72 412q0 119 49.5 229t130.5 188.5t188.5 125t218.5 46.5q160 0 265 -75l10 55h285l-172 -981h-285l10 59q-130 -79 -293 -79q-183 0 -295 118.5t-112 313.5zM358 449q0 -103 58 -165.5t153 -62.5q145 0 252 115l53 311q-66 115 -210 115q-123 0 -214.5 -95t-91.5 -218z M383 1081l297 322h266l184 -322h-245l-94 164l-142 -164h-266z" />
<glyph unicode="&#xe3;" d="M72 412q0 119 49.5 229t130.5 188.5t188.5 125t218.5 46.5q160 0 265 -75l10 55h285l-172 -981h-285l10 59q-130 -79 -293 -79q-183 0 -295 118.5t-112 313.5zM358 449q0 -103 58 -165.5t153 -62.5q145 0 252 115l53 311q-66 115 -210 115q-123 0 -214.5 -95t-91.5 -218z M389 1155q-1 73 22.5 127t61.5 82t86.5 39.5t97 5.5t91.5 -25l59 -26q61 -24 89 -7.5t28 58.5h192q1 -73 -21.5 -127t-60.5 -82.5t-85.5 -40t-96.5 -5t-94 27.5l-62 26q-57 24 -86.5 7t-29.5 -60h-191z" />
<glyph unicode="&#xe4;" d="M72 412q0 119 49.5 229t130.5 188.5t188.5 125t218.5 46.5q160 0 265 -75l10 55h285l-172 -981h-285l10 59q-130 -79 -293 -79q-183 0 -295 118.5t-112 313.5zM358 449q0 -103 58 -165.5t153 -62.5q145 0 252 115l53 311q-66 115 -210 115q-123 0 -214.5 -95t-91.5 -218z M358 1253q0 66 48 111t116 45q69 0 116.5 -45t47.5 -111q0 -67 -47.5 -112t-116.5 -45q-68 0 -116 45t-48 112zM788 1253q0 66 47.5 111t116.5 45q68 0 116 -45t48 -111q0 -67 -48 -112t-116 -45q-69 0 -116.5 45t-47.5 112z" />
<glyph unicode="&#xe5;" d="M72 412q0 119 49.5 229t130.5 188.5t188.5 125t218.5 46.5q160 0 265 -75l10 55h285l-172 -981h-285l10 59q-130 -79 -293 -79q-183 0 -295 118.5t-112 313.5zM358 449q0 -103 58 -165.5t153 -62.5q145 0 252 115l53 311q-66 115 -210 115q-123 0 -214.5 -95t-91.5 -218z M496 1298q0 101 66 162.5t175 61.5t175.5 -61.5t66.5 -162.5t-66.5 -164t-175.5 -63q-108 0 -174.5 62.5t-66.5 164.5zM649 1298q0 -40 24 -64t64 -24t65 24t25 64q0 38 -25 62t-65 24t-64 -24t-24 -62z" />
<glyph unicode="&#xe6;" horiz-adv-x="1830" d="M35 252q0 160 119.5 247t318.5 87h285q35 188 -142 188q-71 0 -123.5 -32.5t-70.5 -92.5h-281q21 92 74 164t126 114t154.5 63.5t166.5 21.5q222 0 319 -133q163 122 367 122q215 0 328 -135.5t79 -355.5q-10 -66 -29 -123h-708q11 -77 64.5 -123.5t146.5 -46.5 q121 0 168 70h307q-65 -143 -202 -226.5t-316 -83.5q-120 0 -214.5 42.5t-152.5 117.5q-65 -46 -114.5 -74.5t-134.5 -54.5t-173 -26q-168 0 -265 72t-97 198zM311 303q0 -39 35.5 -66.5t110.5 -27.5q73 0 137 20t149 74q-8 54 -8 84h-309q-50 0 -82.5 -23t-32.5 -61z M1049 586h446q7 94 -41 141t-139 47q-96 0 -164 -51.5t-102 -136.5z" />
<glyph unicode="&#xe7;" horiz-adv-x="1169" d="M74 489q25 145 115 262.5t222 183.5t279 66q194 0 312.5 -113t109.5 -294h-285q-2 71 -51 113.5t-131 42.5q-110 0 -190 -74.5t-101 -186.5q-22 -117 33 -187.5t168 -70.5q80 0 144 42t92 112h284q-55 -181 -213.5 -294.5t-351.5 -113.5q-236 0 -356 141t-80 371z M195 -436l153 338h279l-189 -338h-243z" />
<glyph unicode="&#xe8;" horiz-adv-x="1159" d="M76 489q37 221 208.5 366.5t395.5 145.5q213 0 326 -135.5t81 -355.5q-4 -29 -10.5 -57t-11.5 -45.5t-6 -20.5h-709q11 -77 64.5 -123.5t146.5 -46.5q121 0 168 70h307q-65 -143 -202 -226.5t-316 -83.5q-154 0 -264 68t-156 184.5t-22 259.5zM373 1415h311l152 -315 h-258zM381 586h444q7 94 -40 141t-138 47q-96 0 -164 -51.5t-102 -136.5z" />
<glyph unicode="&#xe9;" horiz-adv-x="1159" d="M76 489q37 221 208.5 366.5t395.5 145.5q213 0 326 -135.5t81 -355.5q-4 -29 -10.5 -57t-11.5 -45.5t-6 -20.5h-709q11 -77 64.5 -123.5t146.5 -46.5q121 0 168 70h307q-65 -143 -202 -226.5t-316 -83.5q-154 0 -264 68t-156 184.5t-22 259.5zM381 586h444q7 94 -40 141 t-138 47q-96 0 -164 -51.5t-102 -136.5zM580 1100l206 315h312l-260 -315h-258z" />
<glyph unicode="&#xea;" horiz-adv-x="1159" d="M76 489q37 221 208.5 366.5t395.5 145.5q213 0 326 -135.5t81 -355.5q-4 -29 -10.5 -57t-11.5 -45.5t-6 -20.5h-709q11 -77 64.5 -123.5t146.5 -46.5q121 0 168 70h307q-65 -143 -202 -226.5t-316 -83.5q-154 0 -264 68t-156 184.5t-22 259.5zM334 1081l297 322h266 l184 -322h-245l-95 164l-141 -164h-266zM381 586h444q7 94 -40 141t-138 47q-96 0 -164 -51.5t-102 -136.5z" />
<glyph unicode="&#xeb;" horiz-adv-x="1159" d="M76 489q37 221 208.5 366.5t395.5 145.5q213 0 326 -135.5t81 -355.5q-4 -29 -10.5 -57t-11.5 -45.5t-6 -20.5h-709q11 -77 64.5 -123.5t146.5 -46.5q121 0 168 70h307q-65 -143 -202 -226.5t-316 -83.5q-154 0 -264 68t-156 184.5t-22 259.5zM309 1253q0 66 48 111 t116 45q69 0 116.5 -45t47.5 -111q0 -67 -47.5 -112t-116.5 -45q-68 0 -116 45t-48 112zM381 586h444q7 94 -40 141t-138 47q-96 0 -164 -51.5t-102 -136.5zM739 1253q0 66 47.5 111t116.5 45q68 0 116 -45t48 -111q0 -67 -48 -112t-116 -45q-69 0 -116.5 45t-47.5 112z" />
<glyph unicode="&#xec;" horiz-adv-x="532" d="M37 0l172 981h285l-172 -981h-285zM41 1415h311l152 -315h-258z" />
<glyph unicode="&#xed;" horiz-adv-x="532" d="M37 0l172 981h285l-172 -981h-285zM248 1100l207 315h309l-258 -315h-258z" />
<glyph unicode="&#xee;" horiz-adv-x="532" d="M2 1081l297 322h266l185 -322h-246l-94 164l-142 -164h-266zM37 0l172 981h285l-172 -981h-285z" />
<glyph unicode="&#xef;" horiz-adv-x="532" d="M-23 1253q0 66 48 111t116 45q69 0 116.5 -45t47.5 -111q0 -67 -47.5 -112t-116.5 -45q-68 0 -116 45t-48 112zM37 0l172 981h285l-172 -981h-285zM408 1253q0 66 47 111t116 45q68 0 115 -45t47 -111q0 -67 -47 -112t-115 -45q-69 0 -116 45t-47 112z" />
<glyph unicode="&#xf0;" horiz-adv-x="1204" d="M70 408q0 124 49.5 235t132 189t191.5 123.5t225 45.5q89 0 157 -28q-47 89 -118 157l-334 -112l-37 178l199 61q-37 23 -193 101l295 117q113 -57 182 -115l223 76l37 -179l-116 -40q87 -109 133.5 -260.5t46.5 -313.5q0 -150 -51 -277.5t-137 -213.5t-200.5 -134.5 t-240.5 -48.5q-200 0 -322 123t-122 316zM354 442q0 -96 54 -157.5t149 -61.5q124 0 209.5 91.5t85.5 217.5q0 104 -51 160t-152 56q-126 0 -210.5 -90t-84.5 -216z" />
<glyph unicode="&#xf1;" horiz-adv-x="1228" d="M35 0l172 981h285l-13 -70q147 101 299 101q194 0 288 -129t56 -344l-92 -539h-285l91 514q20 116 -24 178t-144 62q-112 0 -238 -123l-111 -631h-284zM354 1155q-1 73 22.5 127t61.5 82t86.5 39.5t97 5.5t91.5 -25l59 -26q62 -24 89.5 -7.5t27.5 58.5h192 q1 -73 -21.5 -127t-60.5 -82.5t-85.5 -40t-96.5 -5t-94 27.5l-61 26q-57 24 -87 7t-30 -60h-191z" />
<glyph unicode="&#xf2;" horiz-adv-x="1204" d="M70 408q0 165 85 302t228 214t311 77q197 0 319 -121t122 -311q0 -164 -85.5 -303t-229 -218t-310.5 -79q-197 0 -318.5 123t-121.5 316zM352 442q0 -95 55.5 -157t149.5 -62q124 0 209.5 91.5t85.5 217.5q0 93 -55 154.5t-148 61.5q-126 0 -211.5 -90t-85.5 -216z M379 1415h311l152 -315h-258z" />
<glyph unicode="&#xf3;" horiz-adv-x="1204" d="M70 408q0 165 85 302t228 214t311 77q197 0 319 -121t122 -311q0 -164 -85.5 -303t-229 -218t-310.5 -79q-197 0 -318.5 123t-121.5 316zM352 442q0 -95 55.5 -157t149.5 -62q124 0 209.5 91.5t85.5 217.5q0 93 -55 154.5t-148 61.5q-126 0 -211.5 -90t-85.5 -216z M586 1100l207 315h311l-260 -315h-258z" />
<glyph unicode="&#xf4;" horiz-adv-x="1204" d="M70 408q0 165 85 302t228 214t311 77q197 0 319 -121t122 -311q0 -164 -85.5 -303t-229 -218t-310.5 -79q-197 0 -318.5 123t-121.5 316zM340 1081l297 322h266l184 -322h-245l-94 164l-142 -164h-266zM352 442q0 -95 55.5 -157t149.5 -62q124 0 209.5 91.5t85.5 217.5 q0 93 -55 154.5t-148 61.5q-126 0 -211.5 -90t-85.5 -216z" />
<glyph unicode="&#xf5;" horiz-adv-x="1204" d="M70 408q0 165 85 302t228 214t311 77q197 0 319 -121t122 -311q0 -164 -85.5 -303t-229 -218t-310.5 -79q-197 0 -318.5 123t-121.5 316zM344 1155q-1 90 34.5 151t90.5 83t116.5 21t116.5 -26l60 -26q62 -24 89.5 -7.5t27.5 58.5h192q1 -73 -21.5 -127t-60.5 -82.5 t-85.5 -40t-96.5 -5t-94 27.5l-62 26q-57 24 -86.5 7t-29.5 -60h-191zM352 442q0 -95 55.5 -157t149.5 -62q124 0 209.5 91.5t85.5 217.5q0 93 -55 154.5t-148 61.5q-126 0 -211.5 -90t-85.5 -216z" />
<glyph unicode="&#xf6;" horiz-adv-x="1204" d="M70 408q0 165 85 302t228 214t311 77q197 0 319 -121t122 -311q0 -164 -85.5 -303t-229 -218t-310.5 -79q-197 0 -318.5 123t-121.5 316zM352 442q0 -95 55.5 -157t149.5 -62q124 0 209.5 91.5t85.5 217.5q0 93 -55 154.5t-148 61.5q-126 0 -211.5 -90t-85.5 -216z M354 1251q0 67 47.5 112.5t116.5 45.5q68 0 116 -45.5t48 -112.5q0 -65 -48 -110t-116 -45q-69 0 -116.5 44.5t-47.5 110.5zM782 1251q0 67 48 112.5t116 45.5q69 0 116.5 -45.5t47.5 -112.5q0 -66 -47.5 -110.5t-116.5 -44.5q-68 0 -116 45t-48 110z" />
<glyph unicode="&#xf7;" horiz-adv-x="1404" d="M215 553l45 252h991l-47 -252h-989zM506 289q0 66 47 110.5t113 44.5q67 0 114 -45t47 -110q0 -64 -47.5 -109t-113.5 -45t-113 45t-47 109zM649 1079q0 65 46.5 109.5t113.5 44.5t114.5 -44.5t47.5 -109.5t-47.5 -109t-114.5 -44t-113.5 44t-46.5 109z" />
<glyph unicode="&#xf8;" horiz-adv-x="1204" d="M31 72l100 98q-61 106 -61 238q0 165 85 302t228 214t311 77q133 0 228 -53l96 94l147 -143l-94 -92q64 -106 64 -238q0 -164 -85.5 -303t-229 -218t-310.5 -79q-131 0 -234 58l-98 -97zM352 442q0 -21 4 -49l355 346q-27 9 -62 9q-126 0 -211.5 -90t-85.5 -216zM487 233 q33 -10 70 -10q124 0 209.5 91.5t85.5 217.5q0 30 -6 54z" />
<glyph unicode="&#xf9;" horiz-adv-x="1243" d="M104 440l95 541h284l-90 -514q-22 -116 22 -178t146 -62q110 0 236 123l110 631h285l-172 -981h-285l13 70q-147 -101 -299 -101q-194 0 -288.5 129t-56.5 342zM391 1415h311l152 -315h-258z" />
<glyph unicode="&#xfa;" horiz-adv-x="1243" d="M104 440l95 541h284l-90 -514q-22 -116 22 -178t146 -62q110 0 236 123l110 631h285l-172 -981h-285l13 70q-147 -101 -299 -101q-194 0 -288.5 129t-56.5 342zM598 1100l207 315h311l-260 -315h-258z" />
<glyph unicode="&#xfb;" horiz-adv-x="1243" d="M104 440l95 541h284l-90 -514q-22 -116 22 -178t146 -62q110 0 236 123l110 631h285l-172 -981h-285l13 70q-147 -101 -299 -101q-194 0 -288.5 129t-56.5 342zM352 1081l297 322h266l185 -322h-246l-94 164l-142 -164h-266z" />
<glyph unicode="&#xfc;" horiz-adv-x="1243" d="M104 440l95 541h284l-90 -514q-22 -116 22 -178t146 -62q110 0 236 123l110 631h285l-172 -981h-285l13 70q-147 -101 -299 -101q-194 0 -288.5 129t-56.5 342zM328 1253q0 66 48 111t116 45q69 0 116 -45t47 -111q0 -67 -47 -112t-116 -45q-68 0 -116 45t-48 112z M758 1253q0 66 47.5 111t116.5 45q68 0 115.5 -45t47.5 -111q0 -67 -47.5 -112t-115.5 -45q-69 0 -116.5 45t-47.5 112z" />
<glyph unicode="&#xfd;" horiz-adv-x="1300" d="M127 983h303l195 -653l393 653h315l-878 -1454h-314l281 465zM627 1100l207 315h311l-260 -315h-258z" />
<glyph unicode="&#xfe;" d="M-45 -473l330 1866h284l-82 -467q134 75 291 75q179 0 293.5 -123t114.5 -309q0 -118 -50 -228t-131 -188.5t-188.5 -125.5t-218.5 -47q-160 0 -264 77l-94 -530h-285zM383 334q66 -113 211 -113q123 0 214 94t91 217q0 97 -58 163.5t-153 66.5q-146 0 -250 -115z" />
<glyph unicode="&#xff;" horiz-adv-x="1300" d="M127 983h303l195 -653l393 653h315l-878 -1454h-314l281 465zM356 1253q0 66 48 111t116 45q69 0 116.5 -45t47.5 -111q0 -67 -47.5 -112t-116.5 -45q-68 0 -116 45t-48 112zM786 1253q0 66 47.5 111t116.5 45q68 0 116 -45t48 -111q0 -67 -48 -112t-116 -45 q-69 0 -116.5 45t-47.5 112z" />
<glyph unicode="&#x152;" horiz-adv-x="2080" d="M129 594q0 166 71.5 314.5t192.5 254.5t286.5 168t348.5 62h1104l-47 -269h-737l-54 -303h652l-48 -268h-651l-51 -285h737l-47 -268h-1104q-146 0 -268.5 44.5t-206.5 122.5t-131 188t-47 239zM432 631q0 -158 106.5 -256.5t290.5 -98.5h74l148 840h-70 q-238 0 -393.5 -139t-155.5 -346z" />
<glyph unicode="&#x153;" horiz-adv-x="1935" d="M70 408q0 165 85 302t228 214t311 77q113 0 203.5 -41.5t149.5 -117.5q83 76 188 117.5t221 41.5q215 0 328.5 -135.5t79.5 -355.5q-10 -66 -29 -123h-709q11 -77 64.5 -123.5t146.5 -46.5q121 0 168 70h307q-65 -143 -202 -226.5t-316 -83.5q-234 0 -360 152 q-181 -160 -424 -160q-197 0 -318.5 123t-121.5 316zM352 442q0 -95 55.5 -157t149.5 -62q124 0 209.5 91.5t85.5 217.5q0 93 -55 154.5t-148 61.5q-126 0 -211.5 -90t-85.5 -216zM1157 586h447q7 94 -41 141t-140 47q-95 0 -162.5 -51.5t-103.5 -136.5z" />
<glyph unicode="&#x178;" horiz-adv-x="1423" d="M168 1393h326l249 -615l465 615h367l-721 -944l-78 -449h-299l78 451zM492 1696q0 66 47.5 110.5t115.5 44.5q69 0 116.5 -44.5t47.5 -110.5q0 -67 -47.5 -112.5t-116.5 -45.5q-68 0 -115.5 45.5t-47.5 112.5zM922 1696q0 66 47 110.5t116 44.5q68 0 116 -45t48 -110 q0 -67 -48 -112.5t-116 -45.5q-69 0 -116 45.5t-47 112.5z" />
<glyph unicode="&#x2c6;" horiz-adv-x="1228" d="M281 1120l297 322h266l184 -322h-246l-94 164l-141 -164h-266z" />
<glyph unicode="&#x2dc;" horiz-adv-x="1228" d="M307 1190q-1 73 22.5 127t61.5 82t86.5 39.5t97 5.5t91.5 -25l59 -26q61 -24 89 -7.5t28 58.5h192q1 -73 -21.5 -127t-60.5 -82.5t-85.5 -40t-96.5 -5t-94 27.5l-62 26q-57 24 -86.5 7t-29.5 -60h-191z" />
<glyph unicode="&#x2000;" horiz-adv-x="999" />
<glyph unicode="&#x2001;" horiz-adv-x="1999" />
<glyph unicode="&#x2002;" horiz-adv-x="999" />
<glyph unicode="&#x2003;" horiz-adv-x="1999" />
<glyph unicode="&#x2004;" horiz-adv-x="666" />
<glyph unicode="&#x2005;" horiz-adv-x="499" />
<glyph unicode="&#x2006;" horiz-adv-x="333" />
<glyph unicode="&#x2007;" horiz-adv-x="333" />
<glyph unicode="&#x2008;" horiz-adv-x="249" />
<glyph unicode="&#x2009;" horiz-adv-x="399" />
<glyph unicode="&#x200a;" horiz-adv-x="111" />
<glyph unicode="&#x2010;" horiz-adv-x="1132" d="M184 391l49 281h723l-51 -281h-721z" />
<glyph unicode="&#x2011;" horiz-adv-x="1132" d="M184 391l49 281h723l-51 -281h-721z" />
<glyph unicode="&#x2012;" horiz-adv-x="1132" d="M184 391l49 281h723l-51 -281h-721z" />
<glyph unicode="&#x2013;" horiz-adv-x="1431" d="M186 393l50 281h1017l-49 -281h-1018z" />
<glyph unicode="&#x2014;" horiz-adv-x="2170" d="M186 393l50 281h1757l-49 -281h-1758z" />
<glyph unicode="&#x2018;" horiz-adv-x="454" d="M162 1042q0 84 98 205l115 144h166l-144 -213q99 -44 99 -136q0 -67 -48.5 -113t-117.5 -46q-71 0 -119.5 46t-48.5 113z" />
<glyph unicode="&#x2019;" horiz-adv-x="454" d="M156 903l143 215q-98 39 -98 135q0 66 48.5 112t117.5 46t117 -46t48 -112q0 -85 -96 -206l-114 -144h-166z" />
<glyph unicode="&#x201a;" horiz-adv-x="454" d="M-45 -223l143 213q-98 42 -98 135q0 67 48.5 113.5t117.5 46.5t118.5 -46.5t49.5 -113.5q0 -84 -98 -205l-115 -143h-166z" />
<glyph unicode="&#x201c;" horiz-adv-x="851" d="M154 1042q0 84 98 205l115 144h165l-143 -213q98 -42 98 -136q0 -67 -48 -113t-117 -46q-70 0 -119 46t-49 113zM553 1042q0 86 96 205l115 144h166l-144 -213q99 -42 99 -136q0 -67 -48.5 -113t-117.5 -46t-117.5 46t-48.5 113z" />
<glyph unicode="&#x201d;" horiz-adv-x="851" d="M156 903l141 215q-98 40 -98 135q0 66 49 112t117 46q70 0 118.5 -46t48.5 -112q0 -82 -98 -206l-112 -144h-166zM553 903l143 215q-98 39 -98 135q0 66 48 112t116 46q70 0 119 -46t49 -112q0 -82 -96 -206l-115 -144h-166z" />
<glyph unicode="&#x201e;" horiz-adv-x="858" d="M-43 -223l143 213q-98 42 -98 135q0 67 48.5 113.5t117.5 46.5t117.5 -46.5t48.5 -113.5q0 -86 -96 -205l-115 -143h-166zM360 -223l142 213q-99 44 -99 135q0 67 49 113.5t117 46.5q71 0 119.5 -46.5t48.5 -113.5q0 -84 -98 -205l-113 -143h-166z" />
<glyph unicode="&#x2022;" horiz-adv-x="698" d="M80 608q0 115 86.5 201t202.5 86t202 -86t86 -201t-86 -200.5t-202 -85.5t-202.5 85.5t-86.5 200.5z" />
<glyph unicode="&#x2026;" horiz-adv-x="1431" d="M0 125q0 68 49 115t119 47t120 -47t50 -115q0 -70 -50 -117t-120 -47t-119 47t-49 117zM492 125q0 69 49 115.5t118 46.5q70 0 119 -47t49 -115q0 -70 -49 -117t-119 -47t-118.5 47t-48.5 117zM973 125q0 68 50 115t118 47q71 0 120.5 -46.5t49.5 -115.5 q0 -70 -49.5 -117t-120.5 -47q-69 0 -118.5 47.5t-49.5 116.5z" />
<glyph unicode="&#x202f;" horiz-adv-x="399" />
<glyph unicode="&#x2039;" horiz-adv-x="557" d="M43 516l248 320h268l-248 -330l133 -309h-266z" />
<glyph unicode="&#x203a;" horiz-adv-x="557" d="M8 197l248 329l-135 310h268l133 -320l-248 -319h-266z" />
<glyph unicode="&#x205f;" horiz-adv-x="499" />
<glyph unicode="&#x20ac;" horiz-adv-x="1683" d="M49 432l33 186h106q1 8 11 78l8 39h-105l33 187h135q109 226 324.5 362.5t464.5 136.5q268 0 425 -162t152 -430h-303q-9 149 -93.5 229.5t-233.5 80.5q-127 0 -235.5 -58t-178.5 -159h565l-82 -187h-569l-8 -39q-6 -40 -9 -78h539l-78 -186h-422q41 -85 124.5 -131.5 t197.5 -46.5q129 0 254 85.5t182 223.5h303q-91 -268 -305 -430t-483 -162q-235 0 -398 125t-204 336h-150z" />
<glyph unicode="&#x2122;" horiz-adv-x="1431" d="M188 1241l27 150h543l-25 -150h-194l-80 -448h-156l78 448h-193zM707 793l104 598h115l170 -328l284 328h117l-104 -598h-158l49 284l-180 -215h-84v2l-109 219l-49 -290h-155z" />
</font>
</defs>
</svg>
